<svg preserveAspectRatio="none" width="100%" height="100%" overflow="visible" style="display: block;" viewBox="0 0 1440 564" fill="none" xmlns="http://www.w3.org/2000/svg">
<g id="Frame 57" clip-path="url(#clip0_0_283)">
<rect width="1440" height="564" fill="url(#paint0_radial_0_283)"/>
<g id="&#208;&#180;&#208;&#184;&#208;&#183;&#208;&#176;&#208;&#185;&#208;&#189;-&#209;&#129;&#208;&#184;&#209;&#129;&#209;&#130;&#208;&#181;&#208;&#188;&#209;&#139;&#226;&#128;&#168;&#208;&#177;&#208;&#181;&#209;&#129;&#209;&#130; &#208;&#191;&#209;&#128;&#208;&#176;&#208;&#186;&#209;&#130;&#208;&#184;&#209;&#129;" opacity="0.08">
<path d="M-12.0369 255.736H10.1391V333.044H-26.8209V289H-108.441V333.044H-145.401V255.736H-130.617C-127.537 252.04 -125.176 248.036 -123.533 243.724C-121.685 239.207 -120.248 234.073 -119.221 228.324C-118.194 222.575 -117.578 216.004 -117.373 208.612C-116.962 201.015 -116.757 192.391 -116.757 182.74V76.48H-12.0369V255.736ZM-80.4129 188.284C-80.4129 203.273 -81.3369 216.312 -83.1849 227.4C-84.8276 238.283 -87.5996 247.728 -91.5009 255.736H-50.2289V109.744H-80.4129V188.284Z" fill="var(--fill-0, #222222)"/>
<path d="M54.2288 193.52L97.6568 76.48H125.069V289H88.1088V177.196L44.3728 289H17.2688V76.48H54.2288V193.52Z" fill="var(--fill-0, #222222)"/>
<path d="M250.276 228.94C250.276 251.116 245.656 267.235 236.416 277.296C227.176 287.152 212.905 292.08 193.604 292.08C182.721 292.08 173.378 290.745 165.576 288.076C157.773 285.407 151.408 280.889 146.48 274.524C141.757 267.953 138.369 259.124 136.316 248.036C134.262 236.948 133.544 222.883 134.16 205.84H172.044C171.633 216.723 171.736 225.552 172.352 232.328C173.173 238.899 174.405 244.032 176.048 247.728C177.69 251.424 179.846 253.888 182.516 255.12C185.39 256.352 188.676 256.968 192.372 256.968C198.942 256.968 203.87 254.709 207.156 250.192C210.441 245.675 212.084 237.564 212.084 225.86C212.084 214.567 210.236 206.969 206.54 203.068C203.049 198.961 197.505 196.908 189.908 196.908H176.972V166.724H190.216C196.17 166.724 200.688 164.568 203.768 160.256C206.848 155.944 208.388 148.141 208.388 136.848C208.388 125.555 207.156 118.06 204.692 114.364C202.433 110.463 198.326 108.512 192.372 108.512C189.908 108.512 187.546 108.923 185.288 109.744C183.029 110.565 181.078 112.516 179.436 115.596C177.793 118.676 176.561 123.296 175.74 129.456C175.124 135.616 175.021 144.035 175.432 154.712H137.856C137.24 137.875 138.061 124.22 140.32 113.748C142.578 103.071 146.069 94.7546 150.792 88.8C155.514 82.8453 161.469 78.8413 168.656 76.788C176.048 74.5293 184.364 73.4 193.604 73.4C212.084 73.4 225.328 78.02 233.336 87.26C241.549 96.5 245.656 112.003 245.656 133.768C245.656 139.928 244.937 145.472 243.5 150.4C242.062 155.123 240.214 159.229 237.956 162.72C235.697 166.211 233.028 169.188 229.948 171.652C226.868 174.116 223.685 176.169 220.4 177.812V181.508C239.701 187.873 249.66 203.684 250.276 228.94Z" fill="var(--fill-0, #222222)"/>
<path d="M297.058 76.48H326.934L375.598 289H336.174L330.63 260.356H291.822L286.278 289H247.162L297.058 76.48ZM297.366 231.096H325.086L311.226 158.1L297.366 231.096Z" fill="var(--fill-0, #222222)"/>
<path d="M416.162 193.52L459.59 76.48H487.002V289H450.042V177.196L406.306 289H379.202V76.48H416.162V193.52ZM433.102 61.696C417.292 61.696 406.101 58.7187 399.53 52.764C392.96 46.604 389.674 36.748 389.674 23.196H415.238C415.238 29.1507 416.573 33.36 419.242 35.824C421.912 38.288 426.532 39.52 433.102 39.52C439.673 39.52 444.293 38.288 446.962 35.824C449.632 33.36 450.966 29.1507 450.966 23.196H476.53C476.53 36.748 473.245 46.604 466.674 52.764C460.104 58.7187 448.913 61.696 433.102 61.696Z" fill="var(--fill-0, #222222)"/>
<path d="M540.137 165.492H575.249V76.48H613.133V289H575.249V198.756H540.137V289H502.253V76.48H540.137V165.492Z" fill="var(--fill-0, #222222)"/>
<path d="M694.532 223.704H624.308V190.748H694.532V223.704Z" fill="var(--fill-0, #222222)"/>
<path d="M818.372 205.84C818.372 224.115 817.345 238.899 815.292 250.192C813.238 261.28 809.85 270.007 805.128 276.372C800.61 282.532 794.758 286.741 787.572 289C780.385 291.053 771.864 292.08 762.008 292.08C750.92 292.08 741.577 290.745 733.98 288.076C726.588 285.407 720.53 280.171 715.808 272.368C711.29 264.565 708.005 253.58 705.952 239.412C704.104 225.039 703.18 206.251 703.18 183.048C703.18 159.024 704.206 139.825 706.26 125.452C708.518 110.873 712.009 99.7853 716.732 92.188C721.454 84.3853 727.512 79.3547 734.904 77.096C742.501 74.632 751.536 73.4 762.008 73.4C771.248 73.4 779.358 74.324 786.34 76.172C793.526 78.02 799.481 81.8187 804.204 87.568C808.926 93.3173 812.417 101.531 814.676 112.208C817.14 122.885 818.372 137.053 818.372 154.712H780.488C780.488 144.856 780.18 137.053 779.564 131.304C778.948 125.349 777.921 120.832 776.484 117.752C775.046 114.672 773.096 112.721 770.632 111.9C768.373 110.873 765.498 110.36 762.008 110.36C757.696 110.36 754.205 111.079 751.536 112.516C748.866 113.953 746.813 117.239 745.376 122.372C743.938 127.3 742.912 134.589 742.296 144.24C741.885 153.891 741.68 166.827 741.68 183.048C741.68 198.859 741.885 211.487 742.296 220.932C742.912 230.377 743.938 237.667 745.376 242.8C746.813 247.728 748.866 251.013 751.536 252.656C754.205 254.299 757.696 255.12 762.008 255.12C765.498 255.12 768.373 254.607 770.632 253.58C773.096 252.348 775.046 249.987 776.484 246.496C777.921 243.005 778.948 238.077 779.564 231.712C780.18 225.141 780.488 216.517 780.488 205.84H818.372Z" fill="var(--fill-0, #222222)"/>
<path d="M865.655 193.52L909.083 76.48H936.495V289H899.535V177.196L855.799 289H828.695V76.48H865.655V193.52Z" fill="var(--fill-0, #222222)"/>
<path d="M1064.47 205.84C1064.47 224.115 1063.45 238.899 1061.39 250.192C1059.34 261.28 1055.95 270.007 1051.23 276.372C1046.71 282.532 1040.86 286.741 1033.67 289C1026.49 291.053 1017.97 292.08 1008.11 292.08C997.021 292.08 987.679 290.745 980.081 288.076C972.689 285.407 966.632 280.171 961.909 272.368C957.392 264.565 954.107 253.58 952.053 239.412C950.205 225.039 949.281 206.251 949.281 183.048C949.281 159.024 950.308 139.825 952.361 125.452C954.62 110.873 958.111 99.7853 962.833 92.188C967.556 84.3853 973.613 79.3547 981.005 77.096C988.603 74.632 997.637 73.4 1008.11 73.4C1017.35 73.4 1025.46 74.324 1032.44 76.172C1039.63 78.02 1045.58 81.8187 1050.31 87.568C1055.03 93.3173 1058.52 101.531 1060.78 112.208C1063.24 122.885 1064.47 137.053 1064.47 154.712H1026.59C1026.59 144.856 1026.28 137.053 1025.67 131.304C1025.05 125.349 1024.02 120.832 1022.59 117.752C1021.15 114.672 1019.2 112.721 1016.73 111.9C1014.47 110.873 1011.6 110.36 1008.11 110.36C1003.8 110.36 1000.31 111.079 997.637 112.516C994.968 113.953 992.915 117.239 991.477 122.372C990.04 127.3 989.013 134.589 988.397 144.24C987.987 153.891 987.781 166.827 987.781 183.048C987.781 198.859 987.987 211.487 988.397 220.932C989.013 230.377 990.04 237.667 991.477 242.8C992.915 247.728 994.968 251.013 997.637 252.656C1000.31 254.299 1003.8 255.12 1008.11 255.12C1011.6 255.12 1014.47 254.607 1016.73 253.58C1019.2 252.348 1021.15 249.987 1022.59 246.496C1024.02 243.005 1025.05 238.077 1025.67 231.712C1026.28 225.141 1026.59 216.517 1026.59 205.84H1064.47Z" fill="var(--fill-0, #222222)"/>
<path d="M1173.08 109.744H1137.66V289H1099.47V109.744H1064.05V76.48H1173.08V109.744Z" fill="var(--fill-0, #222222)"/>
<path d="M1268.83 289H1178.9V76.48H1268.83V109.744H1216.78V165.492H1268.83V198.756H1216.78V255.736H1268.83V289Z" fill="var(--fill-0, #222222)"/>
<path d="M1317.55 166.416V289H1280.89V76.48H1303.38L1344.65 162.72L1384.69 76.48H1407.17V289H1370.52V167.032L1344.03 220.008L1317.55 166.416Z" fill="var(--fill-0, #222222)"/>
<path d="M1525.78 224.32C1525.78 247.728 1521.57 264.36 1513.15 274.216C1504.73 284.072 1491.69 289 1474.04 289H1422.29V76.48H1460.18V160.256H1475.88C1485.12 160.256 1492.82 161.693 1498.98 164.568C1505.35 167.443 1510.48 171.652 1514.38 177.196C1518.49 182.74 1521.37 189.516 1523.01 197.524C1524.86 205.327 1525.78 214.259 1525.78 224.32ZM1577.52 289H1539.33V76.48H1577.52V289ZM1460.18 193.212V255.736H1470.03C1476.6 255.736 1481.43 253.58 1484.51 249.268C1487.59 244.751 1489.13 236.435 1489.13 224.32C1489.13 212 1487.69 203.787 1484.82 199.68C1481.94 195.368 1476.91 193.212 1469.72 193.212H1460.18Z" fill="var(--fill-0, #222222)"/>
<path d="M183.757 445.396C183.757 467.777 179.343 484.307 170.513 494.984C161.889 505.661 148.543 511 130.473 511H74.4172V298.48H171.437V331.744H112.301V380.1H130.165C140.227 380.1 148.645 381.743 155.421 385.028C162.403 388.313 167.947 392.831 172.053 398.58C176.16 404.329 179.137 411.208 180.985 419.216C182.833 427.224 183.757 435.951 183.757 445.396ZM112.301 410.592V478.66H124.313C131.705 478.66 137.249 476.196 140.945 471.268C144.641 466.34 146.489 457.408 146.489 444.472C146.489 431.125 144.744 422.193 141.253 417.676C137.968 412.953 132.116 410.592 123.697 410.592H112.301Z" fill="var(--fill-0, #222222)"/>
<path d="M284.697 511H194.761V298.48H284.697V331.744H232.645V387.492H284.697V420.756H232.645V477.736H284.697V511Z" fill="var(--fill-0, #222222)"/>
<path d="M409.485 427.84C409.485 446.115 408.458 460.899 406.405 472.192C404.352 483.28 400.964 492.007 396.241 498.372C391.724 504.532 385.872 508.741 378.685 511C371.498 513.053 362.977 514.08 353.121 514.08C342.033 514.08 332.69 512.745 325.093 510.076C317.701 507.407 311.644 502.171 306.921 494.368C302.404 486.565 299.118 475.58 297.065 461.412C295.217 447.039 294.293 428.251 294.293 405.048C294.293 381.024 295.32 361.825 297.373 347.452C299.632 332.873 303.122 321.785 307.845 314.188C312.568 306.385 318.625 301.355 326.017 299.096C333.614 296.632 342.649 295.4 353.121 295.4C362.361 295.4 370.472 296.324 377.453 298.172C384.64 300.02 390.594 303.819 395.317 309.568C400.04 315.317 403.53 323.531 405.789 334.208C408.253 344.885 409.485 359.053 409.485 376.712H371.601C371.601 366.856 371.293 359.053 370.677 353.304C370.061 347.349 369.034 342.832 367.597 339.752C366.16 336.672 364.209 334.721 361.745 333.9C359.486 332.873 356.612 332.36 353.121 332.36C348.809 332.36 345.318 333.079 342.649 334.516C339.98 335.953 337.926 339.239 336.489 344.372C335.052 349.3 334.025 356.589 333.409 366.24C332.998 375.891 332.793 388.827 332.793 405.048C332.793 420.859 332.998 433.487 333.409 442.932C334.025 452.377 335.052 459.667 336.489 464.8C337.926 469.728 339.98 473.013 342.649 474.656C345.318 476.299 348.809 477.12 353.121 477.12C356.612 477.12 359.486 476.607 361.745 475.58C364.209 474.348 366.16 471.987 367.597 468.496C369.034 465.005 370.061 460.077 370.677 453.712C371.293 447.141 371.601 438.517 371.601 427.84H409.485Z" fill="var(--fill-0, #222222)"/>
<path d="M518.096 331.744H482.676V511H444.484V331.744H409.064V298.48H518.096V331.744Z" fill="var(--fill-0, #222222)"/>
<path d="M670.012 511H632.128V331.744H597.016V511H559.132V298.48H670.012V511Z" fill="var(--fill-0, #222222)"/>
<path d="M793.299 373.632C793.299 387.595 792.169 399.401 789.911 409.052C787.857 418.703 784.572 426.505 780.055 432.46C775.537 438.415 769.788 442.727 762.807 445.396C755.825 447.86 747.407 449.092 737.551 449.092H723.075V511H685.191V298.48H737.551C747.407 298.48 755.825 299.815 762.807 302.484C769.788 304.948 775.537 309.157 780.055 315.112C784.572 321.067 787.857 328.869 789.911 338.52C792.169 347.965 793.299 359.669 793.299 373.632ZM723.075 331.744V415.828H732.315C736.627 415.828 740.22 415.315 743.095 414.288C746.175 413.056 748.536 410.9 750.179 407.82C752.027 404.535 753.361 400.223 754.183 394.884C755.004 389.34 755.415 382.256 755.415 373.632C755.415 365.008 755.004 358.027 754.183 352.688C753.361 347.144 752.027 342.832 750.179 339.752C748.536 336.672 746.175 334.619 743.095 333.592C740.22 332.36 736.627 331.744 732.315 331.744H723.075Z" fill="var(--fill-0, #222222)"/>
<path d="M831.402 298.48H861.278L909.942 511H870.518L864.974 482.356H826.166L820.622 511H781.506L831.402 298.48ZM831.71 453.096H859.43L845.57 380.1L831.71 453.096Z" fill="var(--fill-0, #222222)"/>
<path d="M983.462 511L959.438 419.216H951.43V511H913.546V298.48H951.43V406.896L981.306 298.48H1022.58L989.93 399.504L1024.73 511H983.462Z" fill="var(--fill-0, #222222)"/>
<path d="M1129.77 331.744H1094.35V511H1056.16V331.744H1020.74V298.48H1129.77V331.744Z" fill="var(--fill-0, #222222)"/>
<path d="M1172.55 415.52L1215.97 298.48H1243.39V511H1206.43V399.196L1162.69 511H1135.59V298.48H1172.55V415.52Z" fill="var(--fill-0, #222222)"/>
<path d="M1371.36 427.84C1371.36 446.115 1370.34 460.899 1368.28 472.192C1366.23 483.28 1362.84 492.007 1358.12 498.372C1353.6 504.532 1347.75 508.741 1340.56 511C1333.38 513.053 1324.86 514.08 1315 514.08C1303.91 514.08 1294.57 512.745 1286.97 510.076C1279.58 507.407 1273.52 502.171 1268.8 494.368C1264.28 486.565 1261 475.58 1258.94 461.412C1257.1 447.039 1256.17 428.251 1256.17 405.048C1256.17 381.024 1257.2 361.825 1259.25 347.452C1261.51 332.873 1265 321.785 1269.72 314.188C1274.45 306.385 1280.5 301.355 1287.9 299.096C1295.49 296.632 1304.53 295.4 1315 295.4C1324.24 295.4 1332.35 296.324 1339.33 298.172C1346.52 300.02 1352.47 303.819 1357.2 309.568C1361.92 315.317 1365.41 323.531 1367.67 334.208C1370.13 344.885 1371.36 359.053 1371.36 376.712H1333.48C1333.48 366.856 1333.17 359.053 1332.56 353.304C1331.94 347.349 1330.91 342.832 1329.48 339.752C1328.04 336.672 1326.09 334.721 1323.62 333.9C1321.37 332.873 1318.49 332.36 1315 332.36C1310.69 332.36 1307.2 333.079 1304.53 334.516C1301.86 335.953 1299.81 339.239 1298.37 344.372C1296.93 349.3 1295.9 356.589 1295.29 366.24C1294.88 375.891 1294.67 388.827 1294.67 405.048C1294.67 420.859 1294.88 433.487 1295.29 442.932C1295.9 452.377 1296.93 459.667 1298.37 464.8C1299.81 469.728 1301.86 473.013 1304.53 474.656C1307.2 476.299 1310.69 477.12 1315 477.12C1318.49 477.12 1321.37 476.607 1323.62 475.58C1326.09 474.348 1328.04 471.987 1329.48 468.496C1330.91 465.005 1331.94 460.077 1332.56 453.712C1333.17 447.141 1333.48 438.517 1333.48 427.84H1371.36Z" fill="var(--fill-0, #222222)"/>
</g>
</g>
<defs>
<radialGradient id="paint0_radial_0_283" cx="0" cy="0" r="1" gradientUnits="userSpaceOnUse" gradientTransform="translate(720 282) rotate(90) scale(369.617 1053.11)">
<stop stop-color="white" stop-opacity="0"/>
<stop offset="1" stop-color="white"/>
</radialGradient>
<clipPath id="clip0_0_283">
<rect width="1440" height="564" fill="white"/>
</clipPath>
</defs>
</svg>
