<svg width="124" height="46" viewBox="0 0 124 46" fill="none" xmlns="http://www.w3.org/2000/svg">
<path d="M111.423 31.48C109.46 31.48 107.754 31.32 106.303 31C104.874 30.6587 103.69 30.1147 102.751 29.368C101.812 28.6 101.108 27.608 100.639 26.392C100.191 25.1547 99.9671 23.6293 99.9671 21.816C99.9671 20.3013 100.063 18.8507 100.255 17.464C100.447 16.0773 100.906 14.8187 101.631 13.688C102.356 12.536 103.434 11.5333 104.863 10.68C106.292 9.80533 108.234 9.144 110.687 8.696C112.82 8.26933 114.623 7.896 116.095 7.576C117.588 7.256 118.911 6.92533 120.063 6.584L121.279 12.056C120.767 12.2267 120.234 12.3867 119.679 12.536C119.146 12.664 118.57 12.8027 117.951 12.952C117.332 13.08 116.66 13.2187 115.935 13.368C115.231 13.5173 114.452 13.6667 113.599 13.816C112.319 14.0293 111.274 14.3067 110.463 14.648C109.674 14.9893 109.044 15.3947 108.575 15.864C108.106 16.312 107.775 16.8347 107.583 17.432C107.391 18.008 107.274 18.648 107.231 19.352H107.679C108.042 18.4347 108.778 17.6987 109.887 17.144C111.018 16.5893 112.639 16.312 114.751 16.312C115.903 16.312 116.959 16.4293 117.919 16.664C118.9 16.8987 119.743 17.2933 120.447 17.848C121.172 18.3813 121.738 19.1067 122.143 20.024C122.548 20.92 122.751 22.04 122.751 23.384C122.751 24.92 122.516 26.2107 122.047 27.256C121.599 28.28 120.906 29.112 119.967 29.752C119.028 30.3707 117.844 30.808 116.415 31.064C115.007 31.3413 113.343 31.48 111.423 31.48ZM111.423 27.096C112.703 27.096 113.642 26.8293 114.239 26.296C114.858 25.7413 115.167 24.7387 115.167 23.288C115.167 21.9653 114.868 21.0587 114.271 20.568C113.674 20.056 112.724 19.8 111.423 19.8C110.207 19.8 109.247 20.056 108.543 20.568C107.86 21.0587 107.519 21.9653 107.519 23.288C107.519 24.7387 107.839 25.7413 108.479 26.296C109.119 26.8293 110.1 27.096 111.423 27.096Z" fill="black"/>
<path d="M83.9358 31.48C81.6318 31.48 79.9038 31.0427 78.7518 30.168C77.6212 29.2933 77.0558 28.0453 77.0558 26.424C77.0558 25.7413 77.1732 25.112 77.4078 24.536C77.6425 23.9387 78.0478 23.4267 78.6238 23C79.1998 22.552 79.9785 22.2107 80.9598 21.976C81.9412 21.72 83.1785 21.592 84.6718 21.592C85.4398 21.592 86.1118 21.6027 86.6878 21.624C87.2638 21.624 87.7865 21.6347 88.2558 21.656C88.7465 21.6773 89.2052 21.6987 89.6318 21.72C90.0798 21.7413 90.5385 21.7627 91.0078 21.784V20.856C91.0078 20.0667 90.7625 19.512 90.2718 19.192C89.8025 18.8507 89.0452 18.68 87.9998 18.68C86.9972 18.68 86.2505 18.808 85.7598 19.064C85.2905 19.2987 84.9598 19.7787 84.7678 20.504H77.5998C77.6852 19.3733 77.9625 18.424 78.4318 17.656C78.9012 16.888 79.5732 16.28 80.4478 15.832C81.3438 15.3627 82.4425 15.032 83.7438 14.84C85.0452 14.6267 86.5598 14.52 88.2878 14.52C91.5945 14.52 94.1332 15.0107 95.9038 15.992C97.6958 16.952 98.5918 18.552 98.5918 20.792V31H91.0078V28.12H90.5918C90.0158 29.2507 89.1945 30.0933 88.1278 30.648C87.0612 31.2027 85.6638 31.48 83.9358 31.48ZM87.3598 27.768C87.8505 27.768 88.3092 27.7147 88.7358 27.608C89.1838 27.5013 89.5785 27.3413 89.9198 27.128C90.2612 26.8933 90.5278 26.5947 90.7198 26.232C90.9118 25.848 91.0078 25.3787 91.0078 24.824V24.376C90.3252 24.3333 89.7065 24.3013 89.1518 24.28C88.5972 24.2587 88.0852 24.248 87.6158 24.248C86.9332 24.248 86.3892 24.3013 85.9838 24.408C85.5998 24.5147 85.3012 24.6533 85.0878 24.824C84.8745 24.9947 84.7358 25.1867 84.6718 25.4C84.6078 25.592 84.5758 25.7947 84.5758 26.008C84.5758 26.6267 84.8105 27.0747 85.2798 27.352C85.7492 27.6293 86.4425 27.768 87.3598 27.768Z" fill="black"/>
<path d="M65.8051 25.496L62.2211 31H54.0291L60.3651 22.872L54.3171 15H62.6051L65.8691 20.248L69.0691 15H77.3571L71.3411 22.872L77.6451 31H69.4211L65.8051 25.496Z" fill="black"/>
<path d="M122.854 35.3115C105.755 31.3524 88.0396 33.1222 73.9183 34.0213C66.9082 34.4677 60.7094 34.7042 56.0044 33.8426C53.6409 33.4098 51.5769 32.6878 49.9553 31.5169C48.3111 30.3295 47.1657 28.7108 46.6131 26.5893L48.5479 26.0845C48.9825 27.7534 49.8566 28.9789 51.1263 29.8958C52.4189 30.8291 54.164 31.4725 56.3642 31.8755C60.787 32.6854 66.7385 32.4744 73.7907 32.0254C87.7941 31.1338 105.854 29.3217 123.306 33.3624L122.854 35.3115Z" fill="#C1EE2E"/>
<path d="M0.0290849 9C0.0290849 4.02944 4.05852 0 9.02909 0H41.0291C45.9996 0 50.0291 4.02944 50.0291 9V36C50.0291 40.9706 45.9996 45 41.0291 45H9.02909C4.05852 45 0.0290849 40.9706 0.0290849 36V9Z" fill="#F3F4F6"/>
<path d="M5.66909 34.936V27.256H6.50108C7.43975 27.256 8.11175 26.744 8.51709 25.72C8.94375 24.696 9.23175 22.7227 9.38109 19.8L9.66909 13.784H23.7811V27.256H26.5651V34.936H21.5411V31H10.6931V34.936H5.66909ZM12.1331 27.256H18.5011V17.528H14.4691L14.2771 20.76C14.0851 23.96 13.3704 26.1253 12.1331 27.256Z" fill="black"/>
<path d="M43.8008 20.088H38.8728C38.4675 18.2747 37.3688 17.368 35.5768 17.368C34.5102 17.368 33.6142 17.7733 32.8888 18.584C32.1848 19.3733 31.8328 20.6213 31.8328 22.328C31.8328 24.056 32.1955 25.3253 32.9208 26.136C33.6462 26.9253 34.5315 27.32 35.5768 27.32C37.4968 27.32 38.6702 26.4347 39.0968 24.664H44.0248C43.6408 26.2853 42.9475 27.6293 41.9448 28.696C40.9635 29.7413 39.9182 30.456 38.8088 30.84C37.6995 31.224 36.5155 31.416 35.2568 31.416C32.4622 31.416 30.2968 30.5947 28.7608 28.952C27.2248 27.3093 26.4568 25.0907 26.4568 22.296C26.4568 19.5867 27.2675 17.4107 28.8888 15.768C30.5102 14.104 32.6328 13.272 35.2568 13.272C36.5582 13.272 37.7528 13.4747 38.8408 13.88C39.9502 14.264 40.9742 14.9893 41.9128 16.056C42.8515 17.1013 43.4808 18.4453 43.8008 20.088Z" fill="black"/>
<path d="M48.1756 10.6362C49.4424 10.8646 50.506 11.1656 51.2302 11.5518C51.5829 11.74 51.9643 12.0042 52.2075 12.387C52.4965 12.8421 52.5422 13.3981 52.2743 13.9081C52.0518 14.3317 51.6618 14.6271 51.2914 14.8406C50.9004 15.066 50.4095 15.2682 49.8346 15.4524L49.5288 14.5002L49.2242 13.5474C49.5872 13.4312 49.8687 13.319 50.0815 13.2174C49.6085 13.0089 48.8585 12.791 47.8208 12.604C46.6377 12.3907 45.1509 12.2283 43.4154 12.145C36.3541 11.8059 25.0415 11.4118 16.721 11.2919C12.5941 11.2324 9.74766 11.4068 7.28598 11.6145C4.83319 11.8215 2.68759 12.0701 0.0575018 12.1458L0 10.1464C2.55628 10.0727 4.59772 9.83439 7.11824 9.62172C9.62979 9.40981 12.5436 9.23158 16.75 9.29223C25.0968 9.41256 36.4322 9.80804 43.5113 10.148C45.3107 10.2344 46.887 10.4039 48.1756 10.6362Z" fill="#C1EE2E"/>
</svg>
