<svg width="150" height="29" viewBox="0 0 150 29" fill="none" xmlns="http://www.w3.org/2000/svg">
<path d="M14.7731 5.2334C12.906 5.23346 11.0805 5.77679 9.52799 6.79492C7.97543 7.81311 6.76599 9.26091 6.05143 10.9541C5.33689 12.6472 5.14912 14.5102 5.51334 16.3076C5.87759 18.1049 6.77719 19.7559 8.09732 21.0518C9.4176 22.3476 11.1001 23.2303 12.9313 23.5879C14.7627 23.9454 16.6613 23.7619 18.3864 23.0605C20.1114 22.3592 21.5863 21.1722 22.6237 19.6484C23.6611 18.1246 24.2145 16.3327 24.2145 14.5H29.5465C29.5465 17.3678 28.6805 20.1712 27.0573 22.5557C25.434 24.9401 23.1268 26.799 20.4274 27.8965C17.7279 28.9939 14.757 29.2811 11.8913 28.7217C9.02551 28.1622 6.39291 26.7808 4.32682 24.7529C2.26088 22.7252 0.853904 20.1416 0.283848 17.3291C-0.286185 14.5164 0.00651628 11.6007 1.12467 8.95117C2.24283 6.30164 4.1366 4.03664 6.56607 2.44336C8.99538 0.850295 11.8515 5.81591e-05 14.7731 0V5.2334ZM102.115 5.81152C100.951 6.10249 99.1108 6.25396 98.0358 6.25977C96.7025 6.27354 95.78 6.7691 95.1413 7.36719C94.8249 7.66162 94.5762 7.98613 94.3883 8.28223C94.1988 8.57373 94.0606 8.84351 93.9596 9.04395C94.7992 8.78928 95.7163 8.62793 96.7497 8.62793C100.585 8.62804 102.871 10.7156 102.871 14.3994C102.871 15.3992 102.698 16.4264 102.434 17.4277C101.788 19.8889 99.9987 24.1445 94.4938 24.1445C90.5985 24.1444 88.4596 22.1721 88.4596 18.2871C88.4596 17.7853 88.5 17.2249 88.5856 16.6396C88.6057 16.4938 88.6254 16.3526 88.6471 16.2021C89.7063 9.76381 92.5682 3.65992 98.8473 3.60059C99.6828 3.59079 101.38 3.50596 102.534 3.23926L102.115 5.81152ZM47.0885 7.55371C54.6969 7.55371 53.5654 13.6342 53.0963 15.7812C51.6948 21.8289 47.906 24.0654 42.8346 24.0654C39.6596 24.0654 35.0879 23.0833 36.7448 15.9297C37.3636 13.2444 39.266 7.55384 47.0885 7.55371ZM69.4635 8.03418C69.2381 8.74482 68.8411 10.2075 68.6374 10.9502L68.3493 11.1299C67.1386 11.1035 66.2202 11.1035 64.4743 11.1035C64.3226 11.7543 63.8508 13.6652 63.0641 17.0605C62.4724 19.6277 61.9846 21.9791 61.7028 23.4688L61.4342 23.709C59.9641 23.709 57.5511 23.7088 56.5378 23.7383L56.3649 23.5615C56.646 22.6062 57.3334 20.0426 58.0573 16.9121C58.6438 14.3786 59.1643 12.1465 59.3669 11.1299C58.1377 11.1594 56.2446 11.159 55.321 11.1895L55.153 10.9824C55.3954 10.208 55.7383 8.86821 55.9538 8.06445L56.234 7.91113C57.0515 7.94048 60.1614 7.9707 62.6647 7.9707C65.6911 7.9707 68.637 7.91149 69.2555 7.88086L69.4635 8.03418ZM86.9977 8.06445C86.7821 8.86889 85.8605 12.7106 84.9782 16.5234C84.2656 19.595 83.6126 22.6614 83.444 23.5264L83.2184 23.709C81.9057 23.709 79.4918 23.7089 78.2331 23.7383L78.0973 23.5264C78.3669 22.4859 78.9574 20.0731 79.6501 17.0898C80.1733 14.8241 80.7022 12.4111 80.9118 11.5156C80.4217 11.5156 79.331 11.4854 78.4128 11.4854C77.4319 11.4854 76.3285 11.5156 75.8376 11.5156C75.6849 12.1719 75.0875 14.6188 74.5368 17.001C73.887 19.8028 73.3113 22.4266 73.0876 23.5264L72.7985 23.709C71.3015 23.709 69.3784 23.7089 67.8415 23.7383L67.6715 23.5615C67.987 22.3361 68.7888 19.0003 69.5573 15.6895C70.3299 12.3564 70.9963 9.07539 71.2135 8.15039L71.4713 7.94141C73.1224 7.94141 74.7894 8.00195 78.8844 8.00195C82.0921 8.00195 85.199 7.91137 86.8571 7.88086L86.9977 8.06445ZM135.497 8.74512L135.186 10.1543L134.729 12.3506C133.654 17.1275 133.254 18.6654 132.322 23.416L132.114 23.5869L129.145 23.6719L129 23.4746L130.196 18.582L130.545 16.9785C129.27 16.9508 127.993 16.9297 126.718 16.9297C125.722 16.9297 124.963 16.9406 124.188 16.9619C123.75 18.8859 123.385 20.5791 122.826 23.416L122.619 23.5869L119.646 23.6719L119.501 23.4746L120.696 18.582L121.167 16.4502C121.95 13.0932 122.098 12.3561 122.564 9.25781L122.77 9.05859C124.135 8.88743 124.457 8.83036 125.854 8.54688L126.006 8.74512L125.689 10.1543L125.236 12.3506L124.76 14.4277C125.831 14.4536 126.903 14.4707 127.98 14.4707C129.116 14.4707 129.865 14.4505 131.127 14.4258C131.536 12.6072 131.701 11.6132 132.059 9.25781L132.263 9.05859C133.634 8.88742 133.953 8.83041 135.353 8.54688L135.497 8.74512ZM141.538 8.74512L141.226 10.1543L140.769 12.3506L140.214 14.793C140.911 14.2017 141.314 13.8297 142.276 12.9229C143.293 11.9565 145.773 9.45603 146.238 8.97168L146.559 8.80273H149.915L150 9.05859C149.708 9.31325 149.561 9.42765 148.393 10.3926C147.927 10.7665 147.64 11.049 147.088 11.5312L143.294 14.9424L147.814 23.334L147.64 23.5576L144.402 23.6455L144.169 23.4746C143.41 21.7102 143.208 21.3144 142.161 19.2354L140.118 15.1982C139.476 17.9949 139.08 19.7575 138.358 23.416L138.156 23.5869L135.181 23.6719L135.038 23.4746L136.233 18.582L136.699 16.4502C137.484 13.0931 137.63 12.3562 138.096 9.25781L138.301 9.05859C139.673 8.88742 139.991 8.83041 141.392 8.54688L141.538 8.74512ZM119.873 8.62793L120.018 8.85547L118.701 14.3877C117.677 18.7792 117.469 19.8588 116.886 23.2559L116.676 23.4561L113.924 23.5146L113.78 23.3115L113.986 22.1729C113.488 22.571 112.196 23.626 109.709 23.626C106.723 23.6259 104.291 21.569 104.291 18.0078C104.291 15.7578 105.404 13.3067 106.632 11.8838C109.358 8.76979 113.135 8.60156 115.83 8.60156L119.873 8.62793ZM96.7497 10.7158C92.152 10.7158 91.5641 17.6843 91.5641 18.7412C91.5643 21.028 92.9704 22.0283 94.5544 22.0283C97.6874 22.0281 98.8584 18.8868 99.3874 16.541C99.5916 15.7137 99.7369 14.887 99.737 14.0879C99.737 11.2012 97.8334 10.7159 96.7497 10.7158ZM115.215 10.7432C114.25 10.7432 112.345 10.8 110.615 11.9404C107.541 13.9884 107.483 17.6686 107.483 17.8086C107.483 19.1761 108.243 21.3711 110.911 21.3711C111.7 21.3711 112.697 21.1694 113.457 20.7119C113.78 20.5172 114.102 20.2266 114.423 19.9766L116.532 10.7686C116.091 10.7685 115.656 10.7432 115.215 10.7432ZM46.1266 10.6523C43.8342 10.6523 42.818 12.7977 42.1422 15.7197C41.5105 18.4315 41.3676 20.9072 43.8727 20.9072C46.1025 20.9071 47.146 18.6383 47.8229 15.7197C48.3007 13.6642 48.8171 10.6525 46.1266 10.6523ZM14.778 8.11914C18.3655 8.11914 21.274 10.974 21.2741 14.4951C21.2741 18.0163 18.3655 20.8711 14.778 20.8711C11.1906 20.8709 8.28287 18.0161 8.28287 14.4951C8.28291 10.9741 11.1906 8.11931 14.778 8.11914ZM23.1149 2.66211C25.1747 2.66224 26.8441 4.30063 26.8444 6.32227C26.8444 8.34411 25.1748 9.98326 23.1149 9.9834C21.0548 9.9834 19.3844 8.3442 19.3844 6.32227C19.3847 4.30055 21.055 2.66211 23.1149 2.66211Z" fill="black"/>
</svg>
