<svg width="158" height="25" viewBox="0 0 158 25" fill="none" xmlns="http://www.w3.org/2000/svg">
<path d="M70.576 7.24187L73.8684 4.81244H62.8428V19.3668H73.8684V16.9354H65.9921V13.2206H72.7239V10.7912H65.9921V7.24187H70.576Z" fill="#21A038"/>
<path d="M54.5128 10.4804H50.6932V7.24187H56.8037L60.0981 4.81244H47.5439V19.3668H54.1061C57.7826 19.3668 59.906 17.6981 59.906 14.7925C59.906 12.0059 57.9972 10.4804 54.5128 10.4804ZM53.9876 16.9354H50.6932V12.9099H53.9876C55.9924 12.9099 56.9223 13.5778 56.9223 14.9357C56.9223 16.2937 55.9209 16.9354 53.9876 16.9354Z" fill="#21A038"/>
<path d="M82.7947 4.8125H76.8047V19.3669H79.954V15.2445H82.8192C86.6368 15.2445 89.0238 13.2449 89.0238 10.0285C89.0238 6.81214 86.6368 4.8125 82.7947 4.8125ZM82.7231 12.8151H79.9315V7.24193H82.7231C84.7525 7.24193 85.85 8.24276 85.85 10.0285C85.85 11.8143 84.7525 12.8151 82.7231 12.8151Z" fill="#21A038"/>
<path d="M42.1482 16.221C41.3143 16.6751 40.3824 16.9132 39.428 16.9132C36.5873 16.9132 34.5355 14.8873 34.5355 12.1007C34.5355 9.31413 36.5873 7.28826 39.428 7.28826C40.454 7.26606 41.4574 7.599 42.2912 8.19425L44.5597 6.52755L44.4166 6.38428C43.1046 5.21598 41.3368 4.62073 39.332 4.62073C37.1616 4.62073 35.1792 5.35924 33.7487 6.69301C32.3161 8.0752 31.5047 10.0042 31.5517 12.0059C31.5272 14.0297 32.3161 15.9829 33.7487 17.4115C35.2508 18.818 37.2556 19.6049 39.3095 19.5565C41.5759 19.5565 43.5562 18.7695 44.8928 17.3409L42.8655 15.8397L42.1482 16.221Z" fill="#21A038"/>
<path d="M126.902 4.83671V19.3891H130.051V13.4346H136.759V19.3891H139.91V4.83671H136.759V10.8154H130.051V4.83671H126.902ZM121.484 19.3891H124.801L118.643 4.83671H115.445L109.169 19.3891H112.343L113.608 16.4592H120.291L121.484 19.3891ZM114.562 14.0298L116.996 8.19433L119.287 14.0298H114.562ZM146.975 13.5072H148.931L153.752 19.3669H157.808L151.365 11.8385L156.997 4.8125H153.394L148.716 11.0535H146.975V4.8125H143.823V19.3669H146.975V13.5072ZM98.7627 10.5047V7.26614H106.997V4.83671H95.6113V19.3891H102.176C105.85 19.3891 107.976 17.7224 107.976 14.8167C107.976 12.0302 106.067 10.5047 102.58 10.5047H98.7627ZM98.7627 16.9596V12.9341H102.057C104.06 12.9341 104.992 13.602 104.992 14.96C104.992 16.318 104.013 16.9839 102.057 16.9839H98.7627V16.9596Z" fill="#21A038"/>
<path d="M21.6956 4.71762C22.2678 5.45613 22.746 6.26527 23.1507 7.12284L12.1251 15.2445L7.49413 12.3388V8.86218L12.1006 11.7436L21.6956 4.71762Z" fill="#21A038"/>
<path d="M2.79165 12.1007C2.79165 11.9332 2.79165 11.792 2.81617 11.6245L0.024524 11.4813C0.024524 11.673 0 11.8868 0 12.0765C0 15.4119 1.36108 18.4366 3.55598 20.6279L5.53629 18.6505C3.84209 16.9838 2.79165 14.6734 2.79165 12.1007Z" fill="url(#paint0_linear_57_133)"/>
<path d="M12.1002 2.81075C12.2678 2.81075 12.4109 2.81075 12.5785 2.83496L12.7215 0.048383C12.5294 0.048383 12.3148 0.0241699 12.1248 0.0241699C8.78337 0.0241699 5.75261 1.38215 3.55566 3.57348L5.53598 5.55092C7.2077 3.86 9.54565 2.81075 12.1002 2.81075Z" fill="url(#paint1_linear_57_133)"/>
<path d="M12.1006 21.3907C11.933 21.3907 11.7899 21.3907 11.6223 21.3665L11.4793 24.153C11.6714 24.153 11.886 24.1773 12.076 24.1773C15.4174 24.1773 18.4502 22.8193 20.6451 20.628L18.6648 18.6505C16.9931 20.3656 14.6776 21.3907 12.1006 21.3907Z" fill="url(#paint2_linear_57_133)"/>
<path d="M17.3507 4.43109L19.7132 2.69174C17.6368 1.02504 14.9883 0 12.1006 0V2.78658C14.0584 2.81079 15.8711 3.40604 17.3507 4.43109Z" fill="url(#paint3_linear_57_133)"/>
<path d="M24.2259 12.1007C24.2259 11.3622 24.1544 10.6479 24.0338 9.93359L21.4323 11.8626C21.4323 11.9332 21.4323 12.0301 21.4323 12.1007C21.4323 14.8409 20.2388 17.2945 18.3545 18.9854L20.2388 21.0577C22.6748 18.8664 24.2259 15.65 24.2259 12.1007Z" fill="#21A038"/>
<path d="M12.1006 21.3907C9.35591 21.3907 6.89737 20.2002 5.20317 18.3176L3.12681 20.2002C5.34623 22.6538 8.54457 24.1773 12.1006 24.1773V21.3907Z" fill="url(#paint4_linear_57_133)"/>
<path d="M5.87146 5.21602L3.98515 3.14374C1.52662 5.35928 0 8.55144 0 12.1007H2.79165C2.79165 9.38479 3.98515 6.90895 5.87146 5.21602Z" fill="url(#paint5_linear_57_133)"/>
<defs>
<linearGradient id="paint0_linear_57_133" x1="3.25828" y1="20.2891" x2="0.455797" y2="12.0473" gradientUnits="userSpaceOnUse">
<stop offset="0.1444" stop-color="#F2E913"/>
<stop offset="0.3037" stop-color="#E7E518"/>
<stop offset="0.5823" stop-color="#CADB26"/>
<stop offset="0.891" stop-color="#A3CD39"/>
</linearGradient>
<linearGradient id="paint1_linear_57_133" x1="4.35194" y1="3.25891" x2="11.5724" y2="0.459412" gradientUnits="userSpaceOnUse">
<stop offset="0.0592" stop-color="#0FA8E0"/>
<stop offset="0.5385" stop-color="#0099F9"/>
<stop offset="0.9234" stop-color="#0291EB"/>
</linearGradient>
<linearGradient id="paint2_linear_57_133" x1="11.3162" y1="21.8072" x2="19.9373" y2="19.8249" gradientUnits="userSpaceOnUse">
<stop offset="0.1226" stop-color="#A3CD39"/>
<stop offset="0.2846" stop-color="#86C339"/>
<stop offset="0.8693" stop-color="#21A038"/>
</linearGradient>
<linearGradient id="paint3_linear_57_133" x1="11.5269" y1="1.77554" x2="18.6894" y2="4.02397" gradientUnits="userSpaceOnUse">
<stop offset="0.0566" stop-color="#0291EB"/>
<stop offset="0.79" stop-color="#0C8ACB"/>
</linearGradient>
<linearGradient id="paint4_linear_57_133" x1="3.83668" y1="20.641" x2="11.5246" y2="23.5635" gradientUnits="userSpaceOnUse">
<stop offset="0.1324" stop-color="#F2E913"/>
<stop offset="0.2977" stop-color="#EBE716"/>
<stop offset="0.5306" stop-color="#D9E01F"/>
<stop offset="0.8023" stop-color="#BBD62D"/>
<stop offset="0.9829" stop-color="#A3CD39"/>
</linearGradient>
<linearGradient id="paint5_linear_57_133" x1="2.1397" y1="12.4375" x2="5.1707" y2="4.41543" gradientUnits="userSpaceOnUse">
<stop offset="0.0698" stop-color="#A3CD39"/>
<stop offset="0.2599" stop-color="#81C55F"/>
<stop offset="0.9216" stop-color="#0FA8E0"/>
</linearGradient>
</defs>
</svg>
