<svg preserveAspectRatio="none" width="100%" height="100%" overflow="visible" style="display: block;" viewBox="0 0 159.783 130.14" fill="none" xmlns="http://www.w3.org/2000/svg">
<path id="Vector 19" d="M0.368 27.7799C0.426138 28.0105 0.283369 28.8772 0.307558 29.271C-0.309004 28.8295 0.156887 26.9802 0.368 27.7799ZM45.2028 67.2159C45.0487 66.9003 44.8946 66.5839 44.7407 66.2669C44.6455 67.1688 44.7636 68.3806 44.6235 69.2163C44.6 69.3528 44.1563 69.0015 44.1384 69.3243C44.1206 69.6476 44.7239 69.579 44.7912 70.0506C44.8646 70.5821 44.4601 72.9999 44.4771 73.8295C44.5419 76.9456 44.9182 80.0973 44.7119 83.1936C44.2215 79.9828 43.8101 83.2399 44.018 84.1224C44.0671 84.3242 45.1834 84.2703 44.9605 87.4627C44.8326 89.3376 43.4039 87.9075 43.9073 90.3433C43.9463 90.5351 43.9966 90.7478 44.06 90.9822C44.1686 90.7167 44.266 90.5006 44.3534 90.3323C44.7142 89.6695 44.903 89.8054 45.0098 90.316C45.1297 90.9163 45.1491 91.9599 45.1961 92.878C45.2113 93.2308 45.1393 95.9196 45.251 97.0047C45.2873 97.3712 45.9067 97.9164 45.9523 98.3741C45.9838 98.6975 45.6787 98.9497 45.7296 99.3912C45.8366 100.36 45.9906 101.318 45.9824 101.215C45.9362 101.092 45.9946 100.836 45.2628 98.9621C44.8552 98.023 44.2533 96.5478 42.4934 94.3315C40.8382 92.1405 37.2896 89.4189 34.4263 88.3702C36.7049 89.5953 37.9669 90.8111 38.2183 91.1455C38.4962 91.5258 38.0133 91.2295 36.9836 90.6327C35.9836 90.0469 34.3783 89.2575 33.0328 88.8027C31.6762 88.3318 30.7245 88.1376 30.3194 88.0334C29.5734 87.8509 28.9003 87.7524 28.8213 87.7686C28.1338 87.9295 29.1794 88.0643 30.2662 88.3557C30.7787 88.4828 32.5168 88.9577 33.5067 89.42C33.9876 89.634 34.2168 89.7695 34.0009 89.711C33.8023 89.6629 33.0977 89.403 32.158 89.1632C31.1829 88.874 30.5544 88.7626 30.2096 88.6988C29.41 88.5516 28.4717 88.4818 27.8694 88.4786C27.2491 88.4727 26.8865 88.5019 26.6842 88.514C26.291 88.5435 26.4586 88.5101 26.7423 88.4212C26.4871 88.3819 26.534 88.0491 26.7991 87.7471C27.0619 87.4464 27.6344 87.1401 27.9003 87.3221C27.0867 86.2176 34.3057 86.5824 35.3533 85.725C35.5506 85.5569 33.8693 85.4366 37.3574 84.566C37.7311 84.4731 37.7251 84.9009 37.9055 84.7991C38.0145 84.7378 38.3017 83.285 39.282 83.6926C39.6375 83.8406 38.1687 85.2492 41.9199 83.5748C41.1967 83.3165 41.6894 82.9087 42.732 82.4644C44.4515 81.7296 47.6131 80.9251 48.4911 80.8251C48.174 80.7535 47.8712 80.6768 47.5461 80.6079C48.9692 80.5965 49.0525 80.0946 49.3501 80.0126C50.5308 79.6881 52.2719 79.5287 53.3408 79.0938C54.5796 78.59 54.3101 77.8261 55.8843 77.5822C55.4776 77.5416 55.0666 77.5024 54.6538 77.4637C55.6875 77.1296 56.712 76.7974 57.7398 76.4628C55.7644 78.3368 58.2639 76.3238 58.4424 76.2324C58.7292 76.0844 58.4499 76.6563 58.9339 76.4184C58.9821 76.3909 58.7662 76.0302 59.5223 75.6997C61.0959 75.0121 61.0302 75.5908 61.7052 75.3326C61.7667 75.3067 61.4173 75.04 62.5549 74.5203C66.1747 72.8631 62.6383 74.7946 62.5119 74.8962C62.3471 75.0298 64.1728 76.0109 60.8144 76.6748C61.9389 76.4433 62.2901 77.047 62.4137 77.0192C62.521 76.9945 64.3304 76.2134 64.4238 76.1527C65.2419 75.5956 64.2841 75.4525 64.4299 75.3076C64.5467 75.1916 66.9826 74.9301 66.9975 73.4103C68.5157 74.2322 66.815 74.7487 65.1017 75.6071C64.9348 75.9564 66.9848 75.4631 67.0833 75.4248C69.5986 74.4717 67.826 73.993 68.1332 73.1427C68.2931 72.698 69.5746 72.9956 68.2901 72.4527C70.5306 71.4934 69.3486 72.539 69.5245 72.5607C69.7899 72.5897 70.4906 72.0276 70.6023 72.0244C70.7678 72.0195 70.3784 72.5249 70.9967 72.4149C71.0987 72.3943 71.823 71.5039 70.5277 71.7043C72.1568 71.1703 71.8517 70.7623 72.7467 71.4758C73.1803 69.3118 73.9409 72.1991 74.4128 72.13C75.6669 71.9433 74.8055 70.7049 74.8409 70.6148C75.0961 70.0274 78.4666 69.2637 79.1757 68.7597C79.2488 69.864 76.6552 69.7506 76.2338 70.132C74.8261 71.4058 78.7534 69.7233 78.0316 71.4236C78.404 70.889 78.7753 70.3544 79.1455 69.8199C80.3743 70.256 79.2055 71.1114 81.5701 69.854C81.7078 69.0106 79.8603 70.6461 80.0824 69.9373C80.2153 69.5208 81.6233 68.8923 81.5853 68.7144C81.5355 68.5023 80.3325 69.247 80.4159 68.8579C80.6011 68.0191 85.5737 66.7975 82.1212 68.5738C83.1225 68.168 84.1549 69.2929 84.8662 68.5349C85.32 68.0449 81.4445 67.4633 86.308 65.9252C86.6558 66.5116 84.4913 66.8595 84.4574 66.9273C84.4119 67.0255 85.3311 68.2948 85.4212 68.3397C85.7317 68.4857 90.2632 65.8048 91.5599 66.099C90.8355 65.4476 95.1119 64.4887 95.4549 64.0549C95.5431 63.9389 94.9045 63.62 95.0072 63.5164C95.652 62.8866 98.0962 62.9135 99.071 62.531C100.158 62.1056 99.8356 61.7367 99.897 61.712C100.373 61.5393 100.12 61.9878 100.41 61.8645C100.86 61.6763 103.84 60.4705 103.951 60.3472C103.987 60.3096 103.291 60.0333 103.898 59.6602C104.001 59.5952 104.191 60.2042 105.953 59.1311C108.049 57.8445 104.073 59.107 104.739 58.092C106.185 58.2605 106.209 57.7925 106.361 57.5317C106.404 57.4596 106.456 57.4033 106.546 57.3801C106.699 57.3406 107.994 57.6266 109.04 57.0894C108.332 57.5568 107.634 58.014 106.897 58.4842C107.73 58.265 109.114 57.4453 109.778 57.3079C110.112 57.2364 110.142 57.9388 110.781 57.6205C110.908 57.5512 110.793 55.864 109.395 57.2966C109.018 56.8489 109.989 56.8047 110.287 56.4872C110.337 56.4365 110.136 55.4894 110.866 55.7914C111.023 55.8711 111.047 58.9294 113.264 55.6341C113.332 55.5292 112.845 55.3852 112.908 55.2747C112.942 55.2046 113.796 54.9356 113.85 54.8531C113.912 54.7632 113.377 54.6108 113.446 54.4934C113.787 53.8959 115.157 54.8731 114.024 55.3185C114.459 55.3064 114.923 55.2775 115.356 55.2618C114.461 54.4582 115.776 54.6902 116.224 54.4116C119.068 52.6134 116.733 53.0502 117.052 52.4453C117.505 51.4903 117.903 53.4848 118.681 52.3591C118.715 52.3075 118.317 52.2903 118.242 52.156C118.153 52.0264 118.489 51.7459 119.636 51.2871C119.362 51.5022 119.056 51.73 118.722 51.9684C119.512 52.7675 119.859 51.1726 119.875 51.1375C120.191 50.8373 120.251 50.8654 120.345 50.8117C120.417 50.7718 120.571 50.6143 120.631 50.2124C120.637 50.1441 120.874 50.2964 120.798 50.185C120.595 49.9965 120.598 49.883 120.49 49.8832C120.386 49.8834 120.005 50.095 119.854 49.9301C119.777 49.8549 120.159 49.5234 120.19 49.4897C120.25 49.4253 119.886 49.8396 119.912 49.8974C119.984 50.1576 120.182 50.0083 120.335 49.9461C120.494 49.878 120.564 49.9231 120.74 50.1433C120.768 50.1852 120.76 50.2037 120.618 50.341C120.548 50.4095 120.442 50.5138 120.341 50.6211C120.243 50.721 120.149 50.8325 120.242 50.683C120.408 50.4107 120.475 50.2436 120.44 50.2928C120.41 50.3299 120.287 50.609 120.262 50.8138C120.202 51.2706 120.423 51.997 120.52 52.4054C120.611 52.8316 120.556 52.9029 119.743 52.738C120.371 52.959 120.571 53.019 120.696 52.4829C119.958 56.5268 120.1 58.7487 120.282 59.9181C120.909 62.8522 121.538 63.8409 121.917 64.6376C122.314 65.3855 122.561 65.7419 122.749 66.0195C123.116 66.5427 123.257 66.6898 123.357 66.8182C123.532 67.0346 123.556 67.0905 123.264 66.9006C123.131 66.812 123.334 66.3198 123.216 66.3209C123.145 66.3219 122.845 66.7661 122.554 66.7113C122.42 66.6835 122.199 66.4598 121.904 66.1165C122.908 66.8225 122.557 66.1079 122.6 65.9305C122.635 65.7802 122.779 65.8324 122.878 65.8323C122.982 65.8349 123.035 65.7768 123.165 65.5746C123.082 65.4527 122.397 65.1669 121.619 64.696C121.287 64.4932 121.62 64.2904 121.469 64.2032C121.43 64.1721 119.934 63.7467 119.922 63.8829C119.93 64.0466 121.069 64.6377 121.77 65.0955C122.496 65.5638 122.734 65.8413 122.321 65.9313C122.174 65.9722 122.024 64.9976 121.644 65.865C120.112 64.8666 117.566 63.5295 114.986 62.2329C113.206 61.3278 111.41 60.4767 109.53 59.6453C111.529 59.8854 113.375 60.8432 115.185 61.7916C115.999 62.2117 116.794 62.6176 117.566 62.9569C117.943 63.1216 119.082 63.7662 119.141 63.268C118.066 62.6794 116.708 62.0909 115.328 61.4749C114.159 60.9534 113.01 60.4393 112.037 59.8757C111.972 59.8382 112.385 59.5461 112.156 59.3783C111.723 59.0597 109.889 59.0723 109.679 58.8024C109.649 58.7456 110.763 58.5769 110.618 58.1356C110.239 56.9997 109.319 58.8265 108.716 58.5709C108.268 58.3688 105.309 56.246 104.257 56.5501C103.161 56.8675 106.579 57.7727 106.147 58.2006C103.747 57.9129 101.623 56.5841 99.3862 55.9352C99.3472 55.9245 99.5512 56.4361 99.0455 56.3359C98.154 56.1587 98.1144 55.5154 97.7194 55.2898C97.2952 55.0473 95.6578 54.631 95.5001 54.3543C95.4808 54.3182 95.9867 53.8485 96.0413 53.8477C96.8144 53.8279 96.8439 54.6497 96.9029 54.6784C97.1358 54.7816 97.4556 54.5704 97.6701 54.6562C98.0258 54.7989 98.1414 55.1233 98.6022 55.2952C98.9266 55.4171 98.7691 54.8132 99.0785 54.9372C99.1936 54.9846 100.06 56.5303 100.553 55.3983C100.773 55.0129 90.5439 51.3635 89.3514 51.3875C90.2219 51.7909 91.0829 52.1948 91.9376 52.6002C90.2075 51.7148 87.734 52.0346 87.9631 50.589C87.9326 50.5798 87.9021 50.5706 87.8715 50.5615C81.0819 48.5206 74.078 46.5657 67.057 44.6501C65.8176 44.2065 66.7489 43.4789 64.592 43.2122C65.0609 43.638 65.5263 44.0632 65.9879 44.4878C64.9784 44.0135 60.3294 42.4208 59.5149 42.4172C59.4095 42.4169 59.0656 43.2021 57.8596 42.9757C56.7939 42.7759 56.7752 42.1185 56.2387 41.8599C55.792 41.6456 55.2203 41.6746 55.0879 41.6057C54.9867 41.5518 55.0374 41.1652 54.7935 41.0351C54.0215 40.6285 54.4239 41.8519 53.9134 40.4351C54.1229 40.4378 54.3304 40.44 54.5411 40.4431C53.599 40.0227 52.3796 39.1356 53.9066 39.2243C54.1686 39.2393 53.8636 39.5498 54.0504 39.5954C61.3854 41.3464 55.7199 39.1851 53.0109 39.1155C52.4852 38.4128 48.7078 37.8321 48.6073 37.6952C48.474 37.4993 49.2131 37.2238 48.4747 36.6479C48.3232 36.5263 43.2924 35.616 45.2529 35.3357C45.6573 35.2776 47.9955 36.0147 48.5703 36.1336C47.507 34.6603 43.9423 35.5251 43.6011 35.3976C42.2129 34.8701 46.5924 35.0777 43.3997 34.1578C40.9397 33.4503 43.0845 34.7818 42.0513 34.8754C41.4723 34.9278 38.8639 33.4029 38.6757 34.5111C37.6811 34.3929 38.3866 33.9533 38.2774 33.8828C38.1682 33.8176 36.1942 33.6843 35.6315 33.305C35.5638 33.2583 35.9358 32.7488 35.8699 32.6838C35.7401 32.5683 33.8808 32.2383 33.7945 32.2683C33.7396 32.2903 34.0571 32.892 33.8482 32.9688C33.6042 33.0565 31.8723 32.5144 31.7396 32.6325C31.5513 32.8138 33.7604 33.1982 33.2636 33.6651C32.2967 33.2835 30.5703 33.2583 29.8013 33.5452C29.995 33.4569 30.9698 33.6727 31.2979 33.7996C30.9418 34.5732 28.8579 34.0586 29.7266 33.5879C29.1893 33.8236 29.4551 34.0816 29.1207 34.3457C29.0338 34.4121 28.3835 34.2733 28.226 34.3841C28.2028 34.4082 28.7948 34.8753 28.6217 35.0081C28.3079 35.2478 26.3701 34.7098 26.2276 34.5928C25.8301 34.2625 27.491 34.3789 27.7061 34.0682C27.738 34.0202 26.5426 33.0217 26.536 32.9574C26.6102 32.302 28.0101 33.1245 27.9753 32.5099C27.6312 32.299 27.2868 32.088 26.9421 31.8769C28.5237 31.6439 31.1133 32.5844 31.9602 32.0907C29.7791 31.7717 27.5497 31.2101 27.9121 29.725C28.0646 29.0996 29.0744 28.9547 29.0771 28.787C29.0788 28.1849 27.6497 28.4951 27.6096 28.4536C27.579 28.4095 27.5694 28.3715 27.5773 28.3386C27.5773 28.3386 27.5773 28.3386 27.5773 28.3385C27.6582 28.0053 29.5402 28.2048 29.6675 28.0744C29.886 27.841 29.3433 26.5325 29.4037 26.2866C29.4442 26.244 30.805 26.2934 30.4709 25.7583C30.133 25.2177 28.998 24.934 28.9688 24.8793C28.8146 24.5675 30.8598 24.8099 30.956 24.6709C31.0053 24.6008 30.0537 23.8675 30.0552 23.723C30.062 23.5793 30.9448 23.475 31.3697 23.1186C31.6861 22.854 31.0507 22.4395 31.1852 22.4185C31.2802 22.4059 33.1601 22.8653 33.2652 22.8308C33.4229 22.7802 33.076 22.2891 33.1633 22.2083C33.2876 22.0918 33.8599 22.377 33.8157 22.2156C33.7832 22.0953 31.7489 20.2001 31.8494 19.8493C32.0219 19.2511 34.1816 21.2442 32.4352 18.2981C32.4224 18.2784 31.8178 18.3121 31.8055 18.2936C31.563 17.7706 33.5353 17.5315 31.294 17.1161C35.5965 17.3466 32.0243 16.3304 32.8799 15.4594C33.2095 15.1247 34.8467 15.3489 34.8676 15.2919C34.8324 14.7581 34.2308 15.0203 34.1164 14.7351C34.0543 14.5762 35.6092 14.396 35.37 13.9776C35.2468 13.762 33.7141 13.4584 33.6592 13.4089C33.1368 12.941 33.9568 12.7704 33.8804 12.5092C33.8294 12.334 32.9182 12.1014 32.9008 12.0679C32.8763 12.001 34.268 11.6786 34.5808 11.5228C34.8185 11.4022 34.1421 10.9602 34.2973 10.9201C35.2326 10.6817 36.7221 12.2244 35.4039 10.2483C35.3236 10.1273 34.6716 10.0111 34.6573 9.98736C34.3672 9.4474 35.5599 9.69445 35.8588 9.38185C36.3732 8.84296 34.5893 8.78221 36.109 8.6826C35.1474 8.01699 34.5526 7.89167 33.2845 7.70696C36.7958 8.21615 38.4013 6.88749 34.5762 6.00811C35.7816 6.32546 35.87 5.3782 36.2356 5.44938C36.4637 5.49488 38.0016 6.82923 37.6887 4.59271C37.6493 4.31324 36.5022 4.37942 36.963 3.9381C39.4947 4.69014 37.0981 3.61911 37.1116 3.54938C37.4329 2.35335 43.4688 4.85491 44.5806 4.98038C45.8707 5.12485 47.213 4.44767 47.4844 4.51239C48.3817 4.73014 47.5202 5.03016 47.6778 5.2558C47.8394 5.48051 50.6077 5.1786 50.7238 5.26074C51.1673 5.58428 50.5279 6.03213 50.5721 6.07341C51.0935 6.57018 54.628 6.96156 55.551 7.32898C55.6135 6.95234 53.6962 6.45133 55.0433 6.15216C56.6091 5.80238 56.2911 7.45207 56.3098 7.53263C62.7225 9.09181 69.1329 10.6695 75.5662 12.2954C75.7058 11.4084 71.3382 10.9942 71.2739 10.8582C70.8785 10.0376 77.9801 11.8556 78.7724 12.3902C78.1518 12.0312 77.5487 11.6773 76.9291 11.3195C78.3153 10.6148 80.4906 12.5521 82.2371 12.5397C82.805 12.536 81.8886 11.8878 81.9173 11.8675C82.6045 11.6343 83.4957 12.1846 82.641 12.5145C84.2281 12.3993 83.8646 12.8891 84.9753 13.2251C85.0321 13.242 84.6595 12.7154 85.5848 12.7819C86.0158 12.812 88.227 13.3981 88.622 13.1296C88.7853 13.0153 88.0673 11.1616 87.5781 12.4618C85.3426 11.1717 86.6424 12.8651 85.7216 12.5886C85.5811 12.5445 86.1063 11.883 83.6645 11.6183C84.4556 10.3862 86.9102 12.109 87.418 12.0706C88.4688 11.9903 84.6901 10.2466 83.6999 11.1109C84.3126 10.1491 83.4573 10.8959 82.5873 10.6231C81.6427 10.3273 82.1409 10.1229 81.6209 9.98606C80.1935 9.60778 80.6019 10.5051 79.5991 9.53278C80.2078 11.8981 77.5245 9.28962 76.7466 8.51383C78.2643 8.78955 79.7877 9.06916 81.304 9.34988C81.2465 9.21894 81.1874 9.08763 81.1314 8.95714C81.522 9.07468 81.9149 9.19304 82.3038 9.31055C82.2137 9.39834 82.1236 9.48613 82.0334 9.57391C84.2368 9.42374 84.5394 10.3178 84.699 10.3684C86.8119 11.0169 89.2824 11.6665 91.4522 12.257C91.7724 12.3449 91.7412 11.6077 93.9722 12.787C94.6858 13.1643 93.8263 13.4923 94.7039 13.6496C96.1793 12.5224 95.8454 13.6554 96.1635 13.7458C97.0799 14.0011 97.7525 13.8104 97.8356 13.8297C97.9637 13.8593 98.0976 13.892 98.236 13.9272C99.3664 14.2156 100.785 14.6673 101.926 14.9497C101.952 14.9513 101.422 14.3234 102.204 14.6914C102.472 14.8192 104.496 17.4331 106.944 17.524C106.382 17.2146 105.852 16.9169 105.29 16.6108C105.925 16.9826 110.938 18.0335 109.905 17.1684C109.26 16.6303 107.118 17.278 107.273 16.0684C108.755 16.8566 117.987 19.3259 118.635 19.9011C118.72 19.9733 117.983 20.1269 118.103 20.2223C118.196 20.2924 120.326 20.9573 120.56 21.2064C120.695 21.3505 119.681 21.2351 119.711 21.3959C119.738 21.5074 122.312 22.6398 122.64 22.2471C121.913 22.1776 120.164 21.3493 121.257 21.3137C121.402 21.3124 121.926 21.8451 122.098 21.8406C123.702 21.8 119.496 20.383 118.867 20.1683C121.662 20.4929 125.472 22.725 128.691 23.6627C129.762 24.5584 126.622 23.4664 127.883 24.3634C130.491 26.237 128.878 24.1746 128.984 24.1629C129.615 24.1114 130.598 25.6817 131.336 26.0204C131.612 26.1465 131.86 26.0799 132.057 25.6464C132.924 26.3183 132.513 26.3601 133.997 26.8044C133.861 26.6135 133.729 26.4244 133.593 26.2339C135.522 26.0374 137.952 29.9563 137.612 30.0068C136.662 30.0832 135.24 28.5322 135.085 28.4819C134.854 28.405 133.506 29.6352 131.831 27.1997C130.4 27.7933 135.207 29.6066 132.756 29.3271C134.158 29.7869 140.117 33.6544 141.663 34.1156C141.841 34.1567 141.758 32.7355 143.452 34.5066C144.262 35.3641 141.951 33.8813 142.257 34.3919C142.539 34.8875 144.012 35.7103 147.112 38.515C148.115 39.4852 149.307 40.5959 150.843 42.2733C151.619 43.1417 152.476 44.0883 153.631 45.7993C154.206 46.6814 154.884 47.7366 155.643 49.5851C156.303 51.4394 157.596 54.3931 156.632 59.8181C156.668 59.6524 156.607 59.9956 156.543 60.322C156.476 60.6657 156.39 61.0649 156.296 61.4569C156.104 62.2524 155.883 63.0068 155.653 63.6954C155.191 65.0743 154.716 66.171 154.282 67.0923C153.413 68.9133 152.713 70.0452 152.315 70.6917C152.169 70.9212 151.927 70.6456 151.786 70.869C151.582 71.1911 151.212 71.9602 150.781 72.7382C150.324 73.5941 149.406 74.9239 148.703 75.5711C151.732 73.0936 146.751 78.8726 145.505 79.5463C143.621 80.9542 143.379 80.3053 142.584 80.7403C139.52 82.3796 136.511 85.7919 134.011 85.5726C134.754 86.7366 130.541 86.6615 129.128 87.3314C128.015 87.873 126.765 89.4743 128.526 89.2368C126.55 90.1269 124.636 91.2948 122.873 92.1806C122.58 92.3275 122.826 91.7739 122.331 92.0365C122.289 92.0613 122.373 92.3994 122.041 92.637C122.017 92.6546 121.991 92.6716 121.962 92.6877C118.526 94.5862 119.94 93.0367 119.172 93.105C118.746 93.1397 118.442 93.1965 118.229 93.264C119.378 92.7189 120.62 92.0981 121.582 91.6095C122.368 91.2128 122.964 90.9062 123.238 90.7762C122.911 90.5756 122.235 90.812 121.408 91.2199C120.018 91.91 118.234 93.0872 117.437 93.2671C117.393 93.2766 117.343 92.7731 117.3 92.7877C117.299 92.7881 117.299 92.7884 117.298 92.7888C116.845 92.9471 114.114 94.3024 114.914 94.5863C115.129 94.662 116.423 94.1145 117.928 93.4066C117.56 93.6829 118.081 94.0464 118.018 94.0988C117.238 94.7284 114.85 95.1717 114.054 95.4282C113.874 95.4872 114.02 95.801 113.992 95.8138C113.264 96.0344 113.17 95.0023 112.842 96.2442C111.101 95.6386 115.135 95.0841 114.579 94.4479C114.14 93.9822 106.215 97.6168 106.608 98.491C106.541 98.4062 106.381 98.332 106.097 98.2891C105.479 98.19 103.272 99.1898 102.958 99.5074C102.906 99.5661 103.283 100.43 103.206 100.47C103.01 100.573 100.002 100.979 99.187 101.899C99.7831 101.805 100.389 101.707 100.989 101.61C97.6589 102.941 98.2788 102.993 99.4911 102.818C99.5475 102.798 99.6145 102.81 99.6688 102.792C100.604 102.646 101.787 102.391 101.83 102.454C101.998 102.696 96.3948 105.079 97.1652 103.835C97.2699 103.666 100.034 102.993 98.5078 102.926C98.2391 102.915 96.6275 103.74 96.5137 103.711C95.757 103.518 99.2002 101.509 98.5125 101.082C97.8505 102.009 96.5904 102.155 95.6288 102.704C95.1905 102.953 95.2477 103.437 95.194 103.468C94.3848 103.917 94.6839 103.268 94.4031 103.391C94.2542 103.459 92.9482 105.099 92.7404 103.621C87.5726 106.77 91.5903 105.218 94.97 103.809C94.0866 104.723 91.8799 105.307 90.9759 105.787C90.6517 105.961 91.0283 106.335 90.4884 106.647C89.3776 107.294 83.5256 108.937 82.0085 109.368C82.8501 108.866 82.3986 108.473 81.7158 108.77C81.0294 109.07 81.8665 109.506 81.7569 109.628C81.6366 109.759 78.2413 110.685 77.731 110.972C80.1077 109.806 79.3621 109.525 77.2544 110.258C77.5022 110.003 77.7507 109.747 77.9997 109.492C76.8543 110.151 73.9869 110.365 73.3599 110.853C73.2621 110.931 73.8162 111.197 73.7613 111.24C73.2093 111.647 70.9243 112.013 70.8829 112.189C70.8427 112.338 71.8738 112.352 71.6023 112.647C71.5445 112.71 70.4723 112.469 69.6571 112.927C69.3568 113.095 69.6938 113.417 69.6219 113.469C69.0205 113.906 69.1829 113.095 67.9892 113.655C67.117 114.065 66.6924 114.955 65.3674 115.195C69.7511 114.526 66.1899 115.441 64.5797 116.311C64.3207 116.45 64.8054 117.083 63.0548 117.325C66.0586 114.772 61.804 117.008 60.891 117.319C60.8386 117.333 60.6495 116.868 60.1933 117.024C60.1555 117.038 60.3239 117.337 59.9143 117.512C56.0215 119.168 58.4353 117.896 57.5694 117.851C57.324 117.831 56.3099 118.42 55.6049 118.813C55.3022 118.979 55.0462 119.113 54.8962 119.17C54.7765 119.213 54.7124 118.863 54.2559 119.038C53.4408 119.352 52.8232 119.965 52.2824 120.185C52.2208 120.208 52.0212 119.691 51.0537 120.217C50.7804 120.365 50.5013 120.67 50.9809 120.673C52.2726 120.692 54.102 119.453 55.6757 119.013C55.9735 118.931 56.2659 118.877 56.5459 118.869C57.2815 118.844 56.6943 119.189 55.8694 119.56C54.8846 119.999 53.5821 120.47 53.4526 120.517C53.3674 120.549 54.1502 119.982 53.2452 120.242C52.4947 120.456 51.3941 121.855 50.1914 122.047C50.1121 122.058 48.9085 121.61 48.9422 121.548C48.9694 121.503 50.3204 120.853 50.0362 120.702C50.0078 120.683 49.1161 120.995 48.9403 120.869C48.7269 120.717 47.672 118.865 47.4711 118.878C46.9324 118.924 47.4082 119.266 47.077 119.343C46.4011 119.501 43.7839 119.714 43.9464 120.422C44.3482 120.336 44.7605 120.246 45.1776 120.153C42.9956 120.949 44.0159 120.937 43.7467 121.168C43.4446 121.421 43.3649 120.777 42.5749 120.967C42.4387 121.005 39.1802 122.145 39.2944 122.38C41.0393 121.417 40.5617 122.378 40.6567 122.365C41.0013 122.314 41.2676 121.77 41.6952 121.645C44.6629 120.778 41.9004 122.386 42.6509 122.336C42.9033 122.32 43.2825 121.802 43.3766 121.792C43.7154 121.749 43.8737 122.217 44.0791 122.108C44.5622 121.854 43.7487 121.383 43.779 121.335C44.107 120.771 46.0137 120.714 45.1587 121.797C45.9148 121.837 45.6759 120.942 46.3113 121.12C47.5766 121.468 45.9712 121.807 45.6001 122.057C44.2415 122.963 43.6757 122.782 41.4962 123.585C40.6846 123.881 39.8419 124.598 39.4234 124.743C39.2131 124.83 36.2748 124.008 36.7512 126.398C35.6079 126.442 33.3945 125.302 31.6639 125.609C30.0476 125.88 30.5708 126.67 30.4332 126.723C30.2526 126.817 27.5662 126.9 26.2682 126.892C25.0316 126.919 25.4213 127.261 23.8573 127.183C23.7002 127.173 23.5093 127.155 23.2657 127.121C21.6313 126.92 19.1816 126.159 17.429 125.181C15.6382 124.209 14.5182 123.229 13.8338 122.542C12.5197 121.164 12.5552 120.769 12.129 120.282C9.77923 117.323 9.39651 115.953 8.94703 115.196C8.5353 114.387 8.35573 114.174 8.17572 114.063C7.83498 113.867 7.65608 114.35 7.32505 113.628C7.18193 113.327 6.71072 111.95 6.42825 110.666C6.12811 109.352 5.94361 108.065 5.81581 106.938C5.5693 104.724 5.487 102.929 5.27792 102.327C5.49269 102.816 5.71409 103.34 5.93976 103.851C6.39711 102.837 5.4349 101.969 6.4178 101.869C4.81075 101.804 5.75758 99.9226 5.69192 99.4099C5.66414 99.2092 5.39358 99.2399 5.36859 98.9845C5.26563 97.9749 5.39456 95.7725 5.24111 95.2757C4.5665 93.0425 3.79069 98.8441 3.7792 99.3967C3.72783 98.3914 3.18845 93.2604 2.50672 95.6484C2.40122 96.0104 3.14085 96.6625 3.1771 96.8604C3.42076 98.274 2.73423 97.1808 2.67799 97.291C2.58809 97.4995 3.24773 98.3967 3.18764 98.6618C3.1688 98.7451 2.56087 98.2358 2.62205 99.6295C2.01178 98.9241 2.31532 95.1153 2.17422 94.643C2.12351 94.4764 0.951424 95.5832 2.02601 92.4028C1.91565 92.4418 1.80529 92.4808 1.69494 92.5197C1.675 92.1494 1.65537 91.7725 1.63602 91.3889C1.56695 90.0529 1.5024 88.6803 1.44212 87.3523C1.70203 87.533 2.23502 88.4699 2.10349 87.2773C2.02773 86.5841 1.46553 87.1081 1.44781 87.0452C1.26507 86.3992 1.32474 75.4769 1.25619 73.3983C1.22995 72.6785 0.757891 70.6976 0.7486 70.5421C0.696577 69.6345 0.979515 66.4264 0.912367 65.7828C0.86908 65.3843 0.392904 65.7653 0.413826 65.4093C0.433956 65.0782 0.897139 65.4192 0.916048 65.3208C1.07857 64.5029 0.454525 58.3122 0.888765 56.8443C0.758936 57.742 1.69327 62.2206 2.01919 62.1313C2.06374 62.1119 2.41175 61.0196 2.23986 60.7965C2.63859 60.4251 1.41805 59.1521 1.65569 58.4593C1.6827 58.3809 2.36605 58.6879 2.4875 57.4513C2.52901 57.0258 1.99473 55.9102 2.5898 54.7887C2.29914 53.1621 3.18274 44.6391 2.4505 44.0502C2.41176 44.0321 2.15878 45.2314 1.85794 44.421C1.45813 43.3443 2.80578 44.318 2.92262 43.0558C2.94024 42.8644 2.80619 39.3713 2.72298 39.261C1.96728 38.2019 1.65816 41.248 1.57035 41.2107C1.34889 41.0983 1.21689 38.5691 1.26927 38.4619C1.32369 38.3633 2.32432 40.4375 1.9464 37.9483C1.82634 38.2315 1.70629 38.5161 1.58625 38.8019C1.35397 37.6293 2.04763 37.5293 2.09027 37.2429C2.22527 36.3524 1.17281 35.4116 2.47552 33.9993C2.82124 33.6297 3.20401 34.2445 3.25585 34.1986C3.7211 33.7554 2.47844 33.1824 3.40654 32.5074C3.47576 32.4588 4.02956 34.0184 4.03403 31.291C3.9449 31.4829 3.85578 31.6695 3.76666 31.855C3.56861 31.4698 3.45367 28.6924 3.50089 28.3286C3.63907 27.2487 4.27646 28.1895 4.20116 27.0947C3.81055 27.408 3.57213 26.9139 3.49465 26.3086C3.39854 25.5178 3.55012 24.575 3.96703 24.6756C3.0217 24.1936 3.75216 21.39 3.77405 20.0677C3.78739 19.2286 3.37351 17.5433 3.42143 17.2649C3.48026 16.9408 4.12555 17.0436 4.26852 16.4611C4.3093 16.2839 3.83434 14.565 4.49842 13.0391C4.62641 12.7404 5.71913 12.1366 5.99404 12.6712C6.46465 13.6152 5.58593 15.3738 6.23246 15.3616C6.92435 15.3246 6.50853 12.9395 6.59673 12.3018C7.00517 9.33415 7.74566 11.0495 7.96844 10.9665C8.50895 10.7781 8.48559 9.14086 8.53376 9.08706C8.74856 8.80573 9.18172 9.94932 9.51181 9.96391C9.94193 9.98442 10.7106 8.41704 10.8571 8.77154C11.0655 9.27811 10.4245 10.7186 10.4556 10.8083C10.8765 11.9894 11.8643 10.3606 12.3502 9.91541C12.4998 9.78067 12.7486 10.3138 12.7922 10.2028C13.4531 8.47988 11.3952 9.85285 11.5278 8.70459C11.6456 7.69881 12.3047 8.98653 12.3405 8.95613C12.3799 8.89951 12.4092 7.68895 12.6388 7.496C12.7548 7.39585 14.0389 10.5624 14.6068 10.4278C14.4777 9.41705 14.3476 8.40513 14.2162 7.39509C14.9581 7.31939 14.4196 8.7632 14.4966 8.91981C14.6516 9.22541 15.0231 8.37129 15.2579 8.41127C15.4072 8.42432 15.9446 9.42042 16.1597 8.52016C16.234 8.21702 15.7106 7.56431 16.2346 6.44577C16.9368 10.3505 17.3379 7.63065 17.6003 7.52074C17.8625 7.40832 18.4918 9.26265 18.3693 7.00512C19.8129 6.90176 18.8262 7.0431 19.0838 7.69307C19.3998 8.47443 19.8668 6.65474 19.5197 9.53946C20.1957 9.38229 20.1357 7.04446 20.1883 6.93203C20.2366 6.82824 20.5723 7.33327 20.6839 7.15132C21.9759 4.96716 21.3892 6.463 22.2192 5.82933C22.2937 5.77004 22.5855 3.71196 22.7203 5.27725C22.9632 8.13501 22.007 9.32639 24.0581 9.80836C24.9402 7.68366 23.5988 5.12532 23.5699 4.4847C23.5285 3.5055 23.9557 4.51321 24.0717 4.39332C24.1092 4.35031 24.0665 3.50479 24.0994 3.4914C25.6574 2.86792 24.1595 7.27163 24.4348 8.6472C24.667 8.28383 24.899 7.89972 25.1309 7.53696C25.1431 8.03291 25.155 8.53427 25.1667 9.04389C25.625 6.63989 25.3448 8.96026 26.6121 9.54662C26.8969 9.67611 26.4027 8.1118 27.2004 9.90125C27.3771 8.57408 27.6376 8.99716 27.2747 7.79786C27.7825 7.83467 28.3671 10.5272 28.6298 11.5882C29.1859 7.82642 27.3357 9.98187 28.3014 6.71854C27.6697 6.11781 27.8018 7.66916 27.6972 7.54884C27.3219 7.08701 27.9075 6.03214 26.5906 4.74835C26.3744 4.54156 25.7226 5.43025 25.7426 4.1235C25.7459 3.97722 26.3012 3.13636 26.3421 3.14936C26.785 3.2525 26.6278 4.08429 26.8123 4.11606C26.9873 4.14769 26.8731 3.22295 26.9213 3.22049C27.4743 3.18576 27.1406 3.98746 27.3126 3.87025C27.6869 3.6163 28.843 0.281642 28.5382 4.62292C27.8767 1.02967 27.925 4.16334 28.1753 5.56715C28.2383 5.92128 28.5695 6.01722 28.6876 6.51915C28.8406 7.17818 28.6861 7.9347 28.7485 8.28244C28.817 8.6462 29.5884 6.57223 29.3694 9.56409C30.1407 8.04655 29.2955 5.34792 29.8253 3.84015C30.8965 0.796569 31.1861 5.94282 31.2929 6.47708C31.3228 6.61774 31.7659 6.14295 31.7939 6.23664C31.8378 6.38738 31.6475 9.31606 32.0172 9.59194C32.3875 9.87603 31.9955 8.52285 32.3797 8.43238C32.6393 8.37492 33.1125 11.8894 33.2822 9.9797C33.3992 8.67204 32.3433 6.24996 33.4588 5.83406C33.5657 7.77191 33.6667 9.69719 33.7653 11.6278C34.1879 10.57 34.6097 9.51302 35.0303 8.45316C35.176 10.6225 34.7002 12.4914 35.3136 14.5449C36.6676 9.60213 36.4063 16.1496 36.5711 16.2135C36.6706 16.2321 37.7753 14.3048 37.977 13.9813C38.4075 15.704 38.6184 20.9261 39.9841 17.8725C39.6758 18.4164 40.4387 19.7671 40.4962 19.7471C41.1006 19.5871 40.7066 16.6442 41.2526 17.1237C41.8864 17.6872 41.0279 18.4532 41.0969 19.3084C41.4403 23.5081 44.3481 22.5558 44.1521 26.3399C44.1435 26.5019 44.1288 26.6739 44.1076 26.857C44.2199 26.7707 44.3323 26.6848 44.4447 26.5991C44.2619 31.3521 44.0762 36.1056 43.8942 40.8338C44.8558 42.6864 45.4408 47.6216 45.3359 50.0372C45.3152 50.5211 44.8116 52.9154 44.7233 53.0938C44.5538 53.4276 44.4872 51.5931 44.1695 52.4227C44.1039 52.5962 43.897 56.6433 44.4358 56.3528C44.4974 55.8989 44.2245 54.4828 44.3512 54.2494C45.2523 52.6203 44.5556 65.0792 44.9291 65.6889C45.1029 65.4118 45.2768 65.138 45.4507 64.862C45.3677 65.6426 45.2851 66.4346 45.2028 67.2159ZM1.89208 30.9788C1.35188 30.5013 1.75929 29.3184 1.60821 28.6143C1.39666 27.6552 -0.6842 26.0008 1.40219 26.7095C1.56573 28.1354 1.72892 29.5621 1.89208 30.9788ZM1.07609 51.8515C1.36582 50.8909 2.53188 51.6345 2.04805 52.4227C1.99308 52.5091 0.686281 53.1518 1.07609 51.8515ZM1.62893 41.8024C1.64434 41.8419 1.61302 42.6677 1.59474 42.6973C1.12634 43.4378 1.22341 40.9489 1.62893 41.8024ZM2.53942 90.7046C2.46396 89.607 1.42254 90.4339 1.87469 91.0959C1.90337 91.1376 2.54354 90.7766 2.53942 90.7046ZM2.54966 89.9212C3.47939 89.0668 1.52371 87.387 1.74415 88.7479C1.76623 88.8847 2.50386 89.9494 2.54966 89.9212ZM1.53764 48.4324C1.90131 48.5395 1.72601 49.5281 1.63925 49.9527C1.3072 49.9409 1.57835 48.8448 1.53764 48.4324ZM1.71803 73.5822C2.00359 73.6215 1.9648 70.1625 1.5873 69.9275C1.74976 70.4748 1.46032 73.5434 1.71803 73.5822ZM2.20878 82.4812C2.25694 82.396 2.16671 81.1973 1.91501 81.2333C1.59117 81.8289 1.99031 82.8794 2.20878 82.4812ZM2.73895 100.992C2.81045 101.069 4.33044 99.8886 3.45802 102.5C3.33204 102.893 2.81292 101.564 2.76698 101.711C2.67365 101.989 2.63784 102.216 2.64246 102.403C2.41816 101.203 2.29182 100.044 2.38197 99.9152C2.81017 99.3501 2.70846 100.963 2.73895 100.992ZM12.9822 123.673C13.6463 124.116 15.7772 125.704 18.2502 126.74C20.7296 127.806 22.7634 128.18 23.6615 128.369C24.3592 128.51 24.9776 128.61 25.2972 128.67C25.4963 128.696 24.5517 129.357 26.9224 129.44C28.6739 129.419 26.238 128.745 29.3303 128.789C32.0626 128.718 28.4509 129.47 28.5955 129.467C28.78 129.491 30.0912 129.372 31.0127 129.246C31.9675 129.125 32.6889 129.03 32.6769 129.241C32.6561 129.395 31.8538 129.555 30.6339 129.662C29.4505 129.777 27.6972 129.767 26.9216 129.76C24.9301 129.712 27.3759 130.472 23.8969 129.966C23.7073 129.932 23.549 129.894 23.4163 129.855C22.6899 129.64 22.4983 129.356 22.5631 129.153C22.6112 128.944 22.818 128.786 22.5646 128.714C22.4941 128.638 19.2538 128.349 15.346 126.025C11.6849 123.738 9.96842 121.455 13.0041 123.695C12.9968 123.687 12.9895 123.68 12.9822 123.673ZM2.70712 102.731C2.66996 102.642 2.64566 102.535 2.64246 102.403C2.66291 102.513 2.6854 102.623 2.70712 102.731ZM2.27926 33.7431C2.00435 34.2403 1.65422 32.7601 2.01425 32.2036C2.30411 32.1881 2.32204 33.6747 2.27926 33.7431ZM3.52706 103.83C3.50001 105.823 3.02891 104.336 2.70712 102.731C2.91447 103.223 3.54472 103.192 3.52706 103.83ZM2.23986 60.7965C2.17369 60.8582 2.07035 60.8976 1.90042 60.903C2.08584 60.7406 2.18563 60.7258 2.23986 60.7965ZM1.94773 64.2087C2.46981 65.378 2.44 62.9974 2.06981 63.0161C1.92995 63.0228 1.92692 64.1616 1.94773 64.2087ZM2.52396 92.1167C2.57077 92.0043 4.11212 93.6287 3.01651 91.3547C2.99286 91.3073 2.96798 91.258 2.94182 91.2067C2.93545 91.2615 2.92899 91.3115 2.92245 91.3571C2.8154 92.1496 2.6836 91.6795 2.56953 91.3658C2.52621 91.2526 2.48543 91.1609 2.44936 91.1672C2.38118 91.1781 2.33791 91.2534 2.31215 91.3721C2.18984 91.9725 2.46815 93.5675 2.34168 93.9934C3.05699 94.3697 2.36519 92.4766 2.52403 92.1196C2.52401 92.1186 2.52398 92.1177 2.52396 92.1167ZM47.9111 124.623C47.7336 125.118 46.7767 125.297 46.1165 125.487C46.2928 124.996 47.26 124.816 47.9111 124.623ZM103.034 14.7972C107.444 15.7081 107.529 17.4973 103.777 15.6782C103.708 15.6427 102.724 14.8834 103.034 14.7972ZM140.979 30.0028C141.106 30.9063 139.458 30.137 138.646 29.3887C138.455 29.2144 137.985 28.1458 138.975 28.485C138.543 29.2588 139.814 30.2942 140.979 30.0028ZM4.10192 104.889C4.64348 105.404 4.52156 107.347 4.7111 108.75C4.13826 107.928 4.02361 105.701 4.10192 104.889ZM117.051 20.167C117.499 20.3812 118.026 19.8913 117.963 19.8129C117.679 19.4553 116.644 19.6419 117.051 20.167ZM3.77866 99.697C4.0636 99.6176 4.46582 101.594 3.76094 101.797C3.7785 101.345 3.59717 99.763 3.77866 99.697ZM46.6531 124.811C46.3349 124.76 47.6566 124.042 48.1156 124.042C48.1966 124.343 46.8482 124.849 46.6531 124.811ZM124.689 22.7581C125.099 22.9781 126.153 23.4213 126.366 23.2309C126.636 22.9915 125.032 22.4638 124.689 22.7581ZM49.8077 2.24872C49.7836 2.12373 51.5075 1.68561 52.1329 2.05551C53.3225 2.7613 49.8398 2.34029 49.8077 2.24872ZM112.575 19.0071C111.472 18.0108 112.725 19.0355 112.865 18.4105C112.002 18.1018 109.84 17.38 111.141 18.4542C111.386 18.6601 112.188 18.837 112.575 19.0071ZM113.705 19.6038C113.91 19.4536 115.061 19.1515 114.229 18.9231C113.841 18.8174 113.022 19.3093 113.705 19.6038ZM59.3152 4.28471C60.2917 5.10624 55.2635 3.55771 55.139 3.42644C55.0737 3.35668 55.0345 3.29638 55.0155 3.24877C54.783 3.37607 53.8156 3.17252 53.8109 2.70536C54.0913 2.81239 54.8864 2.96603 54.9681 3.03769C55.0026 3.06814 55.0274 3.09484 55.0429 3.11961C55.4788 2.82119 59.1262 4.12727 59.3152 4.28471ZM67.6424 6.94959C66.1619 7.43829 66.2832 6.00908 66.4031 5.9919C67.9298 5.77535 66.7726 6.56324 66.8035 6.62137C66.8784 6.7239 67.9866 6.50125 67.6384 6.94859C67.6397 6.94892 67.641 6.94926 67.6424 6.94959ZM60.9926 4.93856C60.9366 4.94367 59.879 4.6375 59.8397 4.60485C59.0773 3.92637 62.0734 4.79145 60.9926 4.93856ZM36.9149 126.537C37.9748 126.409 37.1303 127.17 36.3329 127.169C36.264 127.165 35.9486 126.649 36.9149 126.537ZM114.393 19.6851C114.541 19.8244 119.206 21.8398 119.184 21.0088C118.732 20.9254 113.432 18.6897 114.393 19.6851ZM153.052 40.9068C152.044 39.7807 153.675 40.4548 154.088 41.3899C154.233 41.7231 153.305 41.1884 153.052 40.9068ZM4.32724 97.0832C3.88264 96.1915 5.25713 96.3274 4.82097 97.1294C4.804 97.1624 4.3446 97.117 4.32724 97.0832ZM144.763 32.9799C147.004 34.2055 147.824 35.5729 147.037 35.4775C146.285 35.4235 144.229 34.3291 142.096 32.6139C142.298 32.6123 142.501 32.6121 142.705 32.6135C137.639 29.3071 142.273 32.0863 143.881 32.9972C144.471 33.3199 144.21 32.6801 144.76 32.9749C144.761 32.9766 144.762 32.9782 144.763 32.9799ZM158.926 60.8903C158.113 62.6069 157.674 63.0484 157.675 62.5984C157.666 62.3811 157.747 61.9443 157.859 61.3797C157.916 61.0981 157.979 60.7861 158.035 60.5029C158.088 60.2387 158.149 59.9362 158.119 60.1216C159.422 49.5193 156.023 47.2999 155.269 45.2394C154.128 43.3912 153.375 42.5167 152.858 41.9736C154.034 42.7937 155.583 44.6556 156.469 45.9707C156.89 46.5737 157.058 46.7402 156.783 46.0216C156.519 45.3294 155.835 43.9474 154.962 42.5242C156.439 44.4056 158.032 46.9529 158.99 50.2412C159.985 53.5316 159.812 56.7281 159.684 57.4191C159.55 58.2313 159.565 57.1062 159.481 56.1264C159.404 55.1193 159.252 54.2494 159.284 54.7341C159.327 55.6748 159.481 57.6375 158.976 60.2966C159.029 60.1451 159.026 60.3011 159.012 60.4623C158.995 60.6312 158.964 60.812 158.926 60.8903ZM149.859 37.705C149.736 37.6307 149.298 37.0355 148.897 36.56C148.426 36.0706 147.997 35.6717 147.716 35.4659C148.064 35.5734 148.559 35.8881 149.1 36.3382C149.958 36.9783 150.829 38.2855 149.859 37.705ZM76.6313 8.82053C76.4238 9.229 76.1065 9.4876 75.2253 9.09073C75.5662 8.94568 76.2017 8.9083 76.6313 8.82053ZM4.24593 30.0835C4.27869 29.4442 4.44846 28.1527 3.97799 28.5477C3.93791 28.5837 3.9821 30.0916 4.24593 30.0835ZM128.311 25.304C128.412 25.389 130.726 26.4365 131.169 26.3907C131.237 26.381 131.261 26.3435 131.223 26.2699C131.196 26.2197 131.14 26.1526 131.049 26.0658C130.73 25.7461 127.306 24.342 128.311 25.304ZM109.356 18.373C109.656 18.4716 110.903 18.7801 110.962 18.6887C111.156 18.366 109.593 18.0798 109.356 18.373ZM4.70678 26.8336C4.72175 26.8065 4.72353 26.5852 4.71176 26.3095C4.68707 25.6996 4.60245 24.8583 4.45539 25.0028C4.23096 25.2224 4.27935 25.8339 4.3954 26.3093C4.49158 26.6844 4.63425 26.9645 4.70678 26.8336ZM40.0801 124.578C40.2566 124.509 40.6401 124.901 40.7066 124.887C40.8796 124.852 44.0231 123.672 42.9978 124.647C42.8721 124.815 38.0019 126.022 37.0923 126.156C36.6771 125.581 39.1404 125.578 39.604 125.364C39.687 125.326 39.6136 124.767 40.0794 124.581C40.0797 124.58 40.0799 124.579 40.0801 124.578ZM71.7343 8.06412C71.4944 8.43987 67.9651 7.84264 68.1303 7.35531C69.3259 7.58898 70.5317 7.82633 71.7343 8.06412ZM73.4792 8.57773C74.1473 9.05633 72.3878 8.71277 71.9102 8.45601C71.9767 8.17858 73.3773 8.50651 73.4792 8.57773ZM115.688 22.1199C116.087 22.1471 115.165 21.1775 115.456 21.1499C115.635 21.1316 116.384 21.6345 116.701 21.5402C116.795 21.5075 116.159 20.6721 115.903 20.6117C115.552 20.5268 115.734 21.0725 115.363 20.9493C114.122 20.5371 113.138 19.867 111.984 19.4996C111.88 19.4675 112.583 20.0359 111.701 19.7442C111.561 19.6989 110.89 18.9749 109.811 18.708C107.038 19.3958 105.764 17.4738 102.683 17.1232C102.754 17.2889 104.834 18.3015 104.96 18.3557C107.339 19.3226 111.734 20.7368 114.343 21.6293C115.017 21.8585 114.791 21.449 115.083 21.5361C115.315 21.6062 114.848 22.0633 115.688 22.1199ZM4.56845 30.4234C5.15214 30.1256 4.78409 29.0327 4.81489 28.3541C4.28846 28.5849 4.69845 29.7673 4.56845 30.4234ZM88.9982 13.0763C89.3405 13.1444 90.3565 13.5998 90.4892 13.4538C90.6619 13.2626 89.1697 12.7113 88.9982 13.0763ZM57.1697 119.025C57.2018 118.997 58.0047 118.744 58.0394 118.751C58.9089 118.938 56.4831 119.701 57.1697 119.025ZM76.127 112.212C76.697 111.922 77.2375 111.525 77.6055 111.892C77.1966 111.968 76.172 112.547 76.127 112.212ZM102.053 102.204C101.696 101.68 103.646 101.332 104.003 101.248C103.984 101.553 102.303 102.586 102.053 102.204ZM76.2829 10.7398C75.1596 10.4151 75.1645 11.3854 74.5476 10.7899C74.4509 10.6912 74.5447 8.69747 75.6194 9.72716C75.811 9.912 74.8197 10.1384 76.2829 10.7398ZM141.354 32.1573C140.778 32.2961 139.75 31.5853 139.067 31.1903C139.356 30.9943 140.781 31.8547 141.354 32.1573ZM5.17777 23.2925C5.757 22.7379 5.32752 20.2452 4.94502 20.8626C4.89522 20.9519 5.19986 22.9318 5.17777 23.2925ZM6.69237 109.479C7.16519 110.54 7.15643 109.882 6.99124 108.877C6.83619 107.919 6.59322 106.786 6.30901 106.329C6.36835 106.693 6.58217 109.211 6.69237 109.479ZM95.7023 104.351C95.7428 104.316 96.7957 103.95 96.8499 103.953C97.8739 104.062 94.8943 105.1 95.7023 104.351ZM69.6676 113.809C69.916 113.318 72.4758 112.693 73.1658 112.837C72.819 113.552 69.3655 114.42 69.6676 113.809ZM81.0251 11.685C80.2023 11.4917 79.474 11.1843 78.7615 10.8334C79.0036 10.5691 80.9923 11.4323 81.0251 11.685ZM99.4911 102.818C99.5475 102.798 99.6145 102.81 99.6688 102.792C99.6087 102.802 99.5489 102.809 99.4911 102.818ZM99.2424 16.8482C99.9035 17.1677 99.9174 16.5699 99.8803 16.5406C99.4085 16.2097 98.4988 16.4889 99.2424 16.8482ZM5.42846 29.6396C5.95099 29.3873 5.5471 28.2433 5.67199 27.5626C5.25934 27.7722 5.37427 29.0823 5.42846 29.6396ZM155.547 67.4694C154.887 68.1454 155.248 66.8644 155.812 64.9105C156.391 63.1091 157.074 59.495 157.155 59.9053C157.195 59.9261 157.257 59.8588 157.296 59.9184C157.335 59.9736 157.348 60.1844 157.327 60.5419C157.287 61.2584 157.103 62.4464 156.851 63.507C156.344 65.6755 155.634 67.3675 155.547 67.4694ZM6.70509 104.266C7.0939 104.096 6.44474 102.316 6.28645 102.723C6.17984 102.968 6.45325 104.329 6.70509 104.266ZM154.752 46.0669C153.984 45.015 153.17 43.3125 153.773 43.6979C154.541 44.1544 154.944 46.2911 154.752 46.0669ZM120.771 24.3297C120.892 24.4383 123.072 24.8223 122.382 24.1112C121.903 23.6174 121.603 24.1371 121.465 24.0866C121.313 24.0218 118.328 22.1481 120.771 24.3297ZM132.962 87.8393C133.639 87.3085 134.634 86.9837 135.438 86.5262C135.216 86.9438 133.439 87.9743 132.962 87.8393ZM11.3512 118.152C11.1659 117.87 9.79314 115.734 9.13502 114.013C8.41507 112.248 8.06214 110.815 7.82167 109.839C7.58884 108.873 7.45602 108.258 7.37244 108.139C7.30192 108.049 7.23209 108.332 7.43656 109.839C7.49297 110.064 7.66109 111.504 8.65298 113.961C9.44678 116.294 12.4714 120.06 11.3512 118.152ZM76.2829 10.7398C76.4248 10.7808 76.5823 10.8412 76.7653 10.9298C76.5775 10.8653 76.4217 10.7969 76.2829 10.7398ZM89.1937 14.1781C88.8505 14.3942 90.163 14.8295 90.592 14.7817C90.8113 14.4636 89.2353 14.1457 89.1937 14.1781ZM135.299 86.1285C135.671 85.7288 136.614 85.4059 137.184 85.0501C137.221 85.354 135.628 86.2728 135.299 86.1285ZM104.851 99.5296C105.75 99.3446 106.745 98.8583 106.637 98.5367C106.674 98.5786 106.736 98.6141 106.825 98.639C106.915 98.6629 107.752 98.1517 108.181 98.101C110.776 97.7947 99.3358 102.117 105.543 98.5776C105.313 98.8947 105.083 99.212 104.851 99.5296ZM66.0591 114.285C65.4333 114.075 64.2875 115.043 64.6867 115.07C64.9585 115.09 66.6813 114.499 66.0591 114.285ZM84.2569 107.225C84.0904 107.21 82.8945 107.974 82.9384 108.189C83.7675 108.119 85.0235 107.298 84.2569 107.225ZM62.2277 115.167C61.9019 115.219 61.7441 115.983 61.7893 115.997C62.1777 116.115 62.8625 115.33 62.2277 115.167ZM78.1868 13.0774C78.606 13.3816 80.1754 13.2901 80.6124 12.95C80.6507 13.0476 80.7837 13.1965 81.0435 13.4012C81.0426 13.401 81.0417 13.4008 81.0408 13.4005C81.3846 13.6583 93.2025 16.9994 85.4555 14.0661C85.2141 13.9744 85.4551 14.4454 84.4592 14.1113C84.3933 14.0887 84.442 13.7687 84.2381 13.6989C83.7702 13.54 81.2918 12.6838 80.7165 12.8029C80.7272 12.7441 80.7085 12.6806 80.6513 12.612C80.1426 12.0002 77.8682 12.8435 78.1868 13.0774ZM86.8051 106.187C86.5018 106.176 85.7177 106.598 85.7329 106.896C86.1933 106.869 87.5095 106.215 86.8051 106.187ZM11.7159 116.626C9.68716 113.056 8.73269 109.857 8.7371 110.991C8.76949 111.335 9.18965 112.811 10.2103 114.71C11.1952 116.586 12.915 118.561 11.7159 116.626ZM78.5853 109.472C81.7544 108.636 79.3042 109.173 79.6244 108.607C79.2804 108.895 78.9329 109.184 78.5853 109.472ZM63.8581 8.35019C64.3359 8.56771 63.5498 9.219 63.1036 8.64881C62.9639 8.46824 63.5903 8.22997 63.8581 8.35019ZM41.1495 3.05742C41.4053 3.86891 39.4193 2.94831 40.3498 2.65898C40.3914 2.65167 41.125 3.02294 41.1495 3.05742ZM56.8976 7.20003C57.3573 6.80213 57.591 6.79887 58.5217 7.1544C57.068 6.94044 58.281 7.69081 56.8976 7.20003ZM106.608 98.491C106.621 98.5073 106.631 98.5192 106.637 98.5367C106.624 98.5222 106.615 98.5073 106.608 98.491ZM59.3734 116.334C58.8541 116.075 57.7735 116.494 58.2408 116.776C58.29 116.801 59.3225 116.683 59.3734 116.334ZM80.6124 12.95C80.5785 12.8634 80.6177 12.8233 80.7165 12.8029C80.7065 12.8584 80.6706 12.9038 80.6124 12.95ZM65.0447 113.914C65.1105 114.225 66.8015 113.736 66.8469 113.679C67.5947 112.826 65.7186 113.649 65.0447 113.914ZM7.96514 97.4402C7.9282 97.3471 7.14683 97.9983 7.4824 98.363C7.7425 98.6455 8.10496 97.7945 7.96514 97.4402ZM53.5912 6.5972C53.0614 6.46692 52.312 6.28413 52.2648 5.87682C52.6083 6.02147 53.6697 6.3259 53.5912 6.5972ZM41.8434 3.76837C42.576 3.48055 44.013 3.82989 44.9092 4.12399C44.7874 4.70656 42.4637 3.77436 41.8434 3.76837ZM76.7963 12.4912C76.8359 12.5262 78.1274 13.0412 78.0436 12.6085C77.9252 11.9748 76.4714 12.1844 76.7963 12.4912ZM7.68849 100.381C8.0045 101.048 8.74675 99.4037 8.0643 98.7568C7.71096 98.4053 7.63244 100.265 7.68849 100.381ZM55.8054 117.025C55.1027 117.519 57.1857 117.215 57.2941 116.733C56.94 116.824 56.0491 116.852 55.8054 117.025ZM81.7297 107.029C78.9029 106.816 80.9849 108.37 81.3461 108.028C81.3963 107.979 81.7983 107.034 81.7297 107.029ZM7.57661 17.0021C7.40938 16.6394 6.80612 17.9939 7.20417 18.1533C7.45333 18.2639 7.68324 17.2286 7.57661 17.0021ZM118.229 93.264C118.126 93.3129 118.025 93.3608 117.928 93.4066C117.994 93.3565 118.09 93.3082 118.229 93.264ZM48.1995 117.977C50.4889 118.985 49.8919 117.806 50.0454 117.761C50.3667 117.669 51.2809 117.837 51.8684 117.552C51.222 117.98 50.6026 118.398 49.9423 118.827C50.4451 118.764 53.9523 118.01 55.1655 117.573C55.4115 117.485 55.561 117.41 55.5622 117.359C55.5667 117.189 55.333 117.194 55.0533 117.256C54.619 117.355 54.0856 117.581 54.0532 117.571C53.9737 117.547 53.3788 116.602 53.2284 116.611C52.9714 116.635 48.9435 118.014 48.1995 117.977ZM76.772 109.101C77.2022 109.078 77.4638 109.44 77.6068 109.277C77.6555 109.221 77.5206 108.832 77.6919 108.654C77.3846 108.803 77.0779 108.952 76.772 109.101ZM45.5253 120.488C44.8632 120.179 47.1775 119.608 47.2664 119.635C47.7601 119.828 46.0677 120.742 45.5253 120.488ZM64.1089 113.867C64.0149 113.871 62.2994 114.327 62.4127 114.583C62.9147 114.628 65.1663 113.873 64.1089 113.867ZM77.9401 108.53C78.5387 108.356 79.7788 108.331 79.4343 107.799C79.4334 107.799 79.4326 107.8 79.4317 107.8C78.9375 108.043 78.4378 108.287 77.9401 108.53ZM9.16724 102.707C10.0471 101.315 8.84431 101.998 8.63442 103.258C9.10909 103.588 9.02599 102.953 9.16724 102.707ZM9.63458 98.5659C9.78655 98.2027 9.45508 94.7483 8.95645 95.3092C8.77471 95.4877 9.324 97.4666 9.29462 97.5682C9.24768 97.709 8.64103 97.1025 8.80484 98.1567C8.99671 98.0766 9.5813 98.6905 9.63458 98.5659ZM9.71141 101.558C10.3716 100.245 8.97504 100.022 9.03383 101.002C9.05662 101.381 9.61674 101.748 9.71141 101.558ZM10.295 107.63C10.2909 106.904 10.2641 105.342 9.71076 104.448C9.81662 105.739 9.93467 107.113 10.3175 109.035C10.6213 109.205 10.2752 108.204 10.2942 107.625C10.2945 107.627 10.2948 107.628 10.295 107.63ZM34.4069 5.62074C35.1876 6.21258 33.1419 5.87427 33.0787 5.75992C32.9009 5.38783 34.0581 5.35634 34.4069 5.62074ZM20.1336 9.99776C20.2891 9.76031 20.8032 9.57318 20.5311 9.0412C20.1536 9.58448 19.7758 10.1378 19.3978 10.6958C20.27 11.1174 19.9622 10.2672 20.1336 9.99776ZM23.3049 7.87812C23.3264 7.95582 24.6631 7.52338 23.7744 8.53484C23.1751 9.2236 22.5661 5.52599 23.152 4.85291C23.4345 5.59002 23.1297 7.20794 23.3049 7.87812ZM29.0416 1.32926C29.148 1.28226 29.3217 2.69847 29.2479 2.86034C28.8608 3.72792 28.4732 1.56564 29.0416 1.32926ZM28.8316 5.84232C29.0867 5.18387 29.2652 6.64173 29.118 7.08327C28.8693 7.13428 28.7947 5.94327 28.8316 5.84232ZM38.6799 26.6016C39.1572 27.6536 40.2365 25.8998 39.0802 26.0255C39.0251 26.0312 38.6609 26.5511 38.6799 26.6016ZM30.4086 2.69515C30.156 3.36172 29.972 1.89217 30.1158 1.4536C30.3644 1.41033 30.4456 2.59298 30.4086 2.69515ZM38.6559 28.8261C39.4182 29.6848 39.6143 27.4712 39.5199 27.3571C39.1318 26.903 37.3036 27.3474 36.9227 27.4759C39.4299 27.7439 38.2959 28.4214 38.6559 28.8261ZM43.2043 28.5732C44.1115 28.5528 42.04 27.5871 41.4789 28.0813C41.9088 28.1556 42.9471 28.5803 43.2043 28.5732ZM48.2052 30.5197C48.6469 30.7088 49.9594 31.2248 50.2704 30.9452C49.7571 30.8835 48.4847 30.2218 48.2052 30.5197ZM48.9957 31.7801C49.5978 32.4115 50.095 31.1241 49.1748 31.3181C49.139 31.3256 48.9757 31.7483 48.9957 31.7801ZM52.8956 33.248C53.2338 33.8921 54.0849 32.7368 53.3354 32.515C53.1119 32.4514 52.861 33.1752 52.8956 33.248ZM39.2482 31.4026C39.8661 31.7931 40.9561 31.0809 39.5449 30.6309C40.0841 30.6125 40.6217 30.5938 41.1595 30.5753C39.4074 29.6019 39.2318 30.9143 38.7043 30.7303C37.9695 30.4724 38.2844 29.4309 38.5163 29.1361C37.7415 29.6329 35.1067 29.0058 33.5575 28.762C34.8266 29.356 36.8829 30.3519 38.1583 30.8434C38.5216 30.9842 38.9572 30.7833 39.2708 30.8937C39.7726 31.0722 39.2142 31.3781 39.2456 31.4019C39.2465 31.4021 39.2474 31.4023 39.2482 31.4026ZM58.164 34.5733C59.3947 35.5153 58.8435 34.0058 58.0081 34.0426C57.9706 34.0521 58.1326 34.5499 58.164 34.5733ZM34.431 0.743281C33.8973 2.66903 33.1489 1.27689 34.3055 5.29736C33.4984 3.61552 33.7346 5.2071 33.412 4.88123C33.1569 4.61998 33.3571 3.62707 32.8529 4.20518C33.4024 3.43903 33.2079 0.153838 33.2955 0.0155433C33.2955 0.016906 33.2955 0.0182688 33.2955 0.0196315C33.3477 -0.0679504 34.6 0.131271 34.431 0.743281ZM47.3836 33.9029C47.4598 35.5849 48.2516 33.1388 48.8342 34.6604C50.4995 33.0667 45.5151 33.8465 45.3519 32.1169C50.2278 33.5051 42.4895 29.7426 45.3389 32.9693C42.7241 31.4126 44.3406 33.039 43.8302 33.2369C43.2829 33.4468 41.7696 32.705 41.7085 33.3095C41.7094 33.3097 41.7103 33.3099 41.7112 33.3101C42.6968 33.5067 43.6907 33.7056 44.6755 33.9027C44.0263 32.408 45.9349 33.2746 46.3605 34.4677C46.7018 34.2795 47.0403 34.0906 47.3836 33.9029ZM42.135 31.3674C42.2238 31.4194 44.3972 31.7618 44.3214 31.4753C44.0751 31.2439 41.0067 30.702 42.135 31.3674ZM32.6876 29.3693C33.4535 29.5575 34.5755 30.0893 35.1092 29.7149C34.3419 29.5259 33.2207 28.9943 32.6876 29.3693ZM71.9348 39.1791C73.0016 39.039 70.0572 38.1585 70.7991 38.8406C70.8356 38.873 71.8807 39.1844 71.9348 39.1791ZM49.6558 34.2087C50.5289 34.9316 50.4365 33.2906 49.6033 33.5077C49.5549 33.5207 49.6154 34.1756 49.6558 34.2087ZM34.6411 2.29624C35.028 2.35985 34.7855 5.16473 34.7912 5.66083C34.4329 5.3842 34.2002 2.21958 34.6411 2.29624ZM31.0019 30.4441C32.2005 32.1574 34.6417 31.1026 34.8612 31.1917C35.0783 31.2808 34.5824 31.7835 34.63 31.8117C34.7395 31.873 37.15 32.4045 37.2763 32.3919C37.3671 32.3801 37.1335 31.4484 37.6916 31.3081C36.6092 31.5424 32.2973 30.1887 32.0446 30.225C31.8509 30.2556 32.9705 31.4446 31.0046 30.4447C31.0037 30.4445 31.0028 30.4443 31.0019 30.4441ZM35.3839 31.5088C34.869 31.0174 36.5579 31.3803 36.9355 31.6073C37.7706 32.1125 35.4497 31.5681 35.3839 31.5088ZM39.3484 32.8079C39.5213 32.9321 41.2344 33.4233 41.4761 33.0738C40.7758 32.3734 38.958 32.5214 39.3484 32.8079ZM58.5864 37.4794C59.0441 37.5411 60.2027 38.145 60.3572 37.8263C59.8955 37.7628 58.7404 37.1603 58.5864 37.4794ZM37.7303 11.8008C38.0182 11.0299 38.142 12.8137 38.0038 13.3515C37.7726 13.3737 37.7057 11.8694 37.7303 11.8008ZM49.0327 37.4701C49.2745 37.6368 54.7491 38.7163 55.5456 38.7483C54.8682 38.3084 49.508 36.9652 49.2331 37.0308C49.1527 37.0505 49.0027 37.4457 49.0327 37.4701ZM37.2648 34.7639C36.6473 35.1396 36.4663 34.4656 36.4053 34.4429C35.8063 34.2173 34.5037 34.0204 34.8991 33.6101C35.9382 34.0656 38.4948 34.0187 37.2648 34.7639ZM58.4103 39.8171C60.285 40.0897 56.9006 38.6906 57.2302 39.3233C57.253 39.3621 58.2173 39.7894 58.4103 39.8171ZM48.391 37.4658C47.8911 37.7668 42.5519 36.0949 41.6789 35.8828C42.6372 35.3328 43.1345 36.0491 44.1877 36.2663C44.4726 36.3241 44.473 35.9983 44.5033 36.0052C44.9977 36.1108 44.5436 36.3764 44.8447 36.4556C45.036 36.5044 49.1023 37.0413 48.391 37.4658ZM36.8976 35.0389C36.5252 35.2495 33.103 34.5495 32.9838 34.4409C32.0976 33.6312 36.6588 34.8756 36.8976 35.0389ZM48.7274 38.2452C47.9344 38.9609 45.3838 37.7261 47.332 37.7495C47.5187 37.7539 48.1669 38.3077 48.7274 38.2452ZM58.0111 40.5856C58.0923 40.6325 59.9639 41.2826 60.0645 41.0179C59.8162 40.8424 57.0545 40.052 58.0111 40.5856ZM56.7895 41.2621C56.8372 41.267 56.5195 40.6292 57.4006 40.9195C57.4738 40.9445 57.4658 41.5708 58.6433 41.6348C58.884 41.6475 59.3363 41.3448 59.3168 41.3141C58.3756 40.0913 54.3995 40.9916 56.7895 41.2621ZM36.7191 35.5041C36.841 35.7985 36.2207 36.4343 35.914 35.9619C35.7827 35.7582 36.2092 35.3897 36.7191 35.5041ZM64.0019 42.3446C62.7814 42.5136 66.2369 43.4789 66.4381 43.4087C66.4023 43.1013 64.1192 42.3271 64.0019 42.3446ZM41.3119 13.6099C41.3119 13.609 41.3119 13.6081 41.3119 13.6072C41.2088 14.5852 40.8221 13.981 40.8101 14.0256C40.2477 16.1071 41.1195 15.5531 41.2231 15.8764C41.4468 16.5788 40.385 16.4559 40.8263 17.6404C40.1744 15.6973 40.4486 17.4579 40.0709 17.5196C38.5298 17.7326 40.7901 14.9329 40.4647 13.9626C40.4197 13.8285 39.9296 14.8277 39.789 14.4831C39.3339 13.3689 41.7039 9.85237 41.3119 13.6099ZM35.5911 35.953C35.0486 36.2872 31.8425 35.06 32.8076 34.9096C32.9636 34.8856 36.3869 35.4666 35.5911 35.953ZM94.0721 66.8469C94.6692 66.1808 92.7661 66.4579 92.5679 66.8665C92.4664 67.0717 93.8077 67.1404 94.0721 66.8469ZM81.3053 70.1262C80.4423 70.5488 80.0892 72.4395 81.1121 71.769C81.2207 71.6969 81.4904 70.2973 81.3053 70.1262ZM123.174 62.2047C121.821 59.8542 121.901 55.4698 122.183 55.3733C122.376 55.0287 122.469 58.4997 123.246 60.8773C123.487 61.7027 123.485 61.9809 123.417 62.1461C123.348 62.3002 123.212 62.2801 123.174 62.2047ZM104.349 61.7936C104.25 61.7957 103.25 62.3017 103.383 62.5155C103.83 62.4872 105.025 61.7843 104.349 61.7936ZM123.576 63.5374C123.392 63.0403 123.373 62.7551 123.499 62.8284C123.622 62.8905 123.868 63.2257 124.117 63.5755C124.625 64.3035 125.006 64.8461 124.856 65.2906C124.796 65.1541 124.574 64.9456 124.273 64.5714C123.98 64.2158 123.617 63.6519 123.576 63.5374ZM50.1855 41.0731C50.7834 40.7615 52.1239 41.2309 52.9385 41.3536C52.8839 41.9345 50.7799 41.1115 50.1855 41.0731ZM85.3319 69.2506C84.6372 69.9623 86.5676 69.5578 86.2029 69.1235C86.1695 69.1054 85.3591 69.2213 85.3319 69.2506ZM106.501 56.9168C107.189 56.7974 105.533 55.713 105.829 56.4616C105.848 56.4941 106.461 56.9223 106.501 56.9168ZM98.4565 54.0031C98.8716 54.2538 100.816 54.8438 100.166 54.281C100.069 54.1942 98.5839 53.7115 98.4565 54.0031ZM41.6387 15.9333C42.2313 15.6577 42.0921 17.2546 41.9885 17.4887C41.9456 17.5727 40.8678 16.3021 41.6387 15.9333ZM122.75 51.7894C122.754 51.8866 122.553 52.0781 122.491 52.3075C122.466 52.3963 122.493 52.4454 122.553 52.5041C122.555 52.4839 122.578 52.4582 122.628 52.4063C122.869 52.1623 123.209 52.0275 122.75 51.7894ZM89.1659 67.7238C88.1936 67.4191 86.9718 67.9734 87.5906 68.6332C88.9515 68.0304 87.1397 67.9993 89.1659 67.7238ZM124.297 66.0711C124.35 66.1989 124.966 65.6774 124.993 65.6499C125.221 65.3591 124.419 65.7439 124.297 66.0711ZM113.34 57.3394C113.168 57.0403 112.155 57.7032 112.395 57.8338C112.473 57.88 113.478 57.5838 113.34 57.3394ZM67.186 45.5321C67.7026 45.9894 65.8083 45.824 65.3662 45.3321C65.2337 44.7508 67.1225 45.4781 67.186 45.5321ZM120.342 63.2666C120.089 63.7089 121.644 64.1767 121.28 63.5135C121.195 63.3488 120.438 63.1218 120.342 63.2666ZM103.73 57.0516C105.165 56.8885 100.119 54.732 101.242 55.9139C101.321 55.9937 103.612 57.0614 103.73 57.0516ZM95.2505 53.914C95.4477 54.0448 94.845 55.6611 94.1214 54.748C94.0259 54.629 94.7216 54.3638 94.6532 54.2342C94.6144 54.1588 92.6785 53.3259 92.577 53.3393C92.4653 53.3539 92.4247 53.9178 92.307 53.9475C92.1759 53.9805 91.077 53.151 90.4226 52.9561C89.2015 52.5926 88.9351 52.996 88.8336 52.9681C88.5365 52.8862 88.1417 52.4338 87.5348 52.2624C87.4906 52.2499 87.446 52.2374 87.4009 52.2249C84.395 51.3851 79.6952 50.4902 77.5312 48.9246C79.6109 49.8819 81.7856 50.0381 83.9639 50.5051C83.0819 51.2554 87.3085 50.6648 84.8043 51.1187C85.1415 51.135 86.2239 51.3622 87.5545 51.6819C90.5568 52.3974 94.7962 53.6187 95.2481 53.9133C95.2489 53.9135 95.2497 53.9137 95.2505 53.914ZM77.601 71.0484C77.9383 70.2877 75.1657 71.5005 75.169 72.2274C75.5766 72.1724 77.5573 71.1373 77.601 71.0484ZM90.0051 64.6158C90.2259 64.4172 90.0484 63.2502 91.608 63.2475C91.6092 63.247 91.6104 63.2465 91.6116 63.246C92.0678 63.2447 91.7261 63.6857 91.8355 63.749C91.8742 63.7776 93.3292 63.8037 92.3354 64.3067C90.8341 65.0676 91.8684 63.5733 91.0346 63.8977C90.9354 63.9373 89.5838 65.1529 89.7295 65.2412C89.7452 65.252 90.1675 64.9403 90.2695 64.9604C90.6471 65.0384 90.6363 65.4298 90.6847 65.4287C90.8428 65.4134 93.1004 63.8388 93.662 64.1852C93.8516 64.2971 89.8964 66.3269 89.7079 66.3028C89.5858 66.291 89.2573 65.3489 89.1162 65.2998C89.0458 65.2759 87.5275 66.2854 87.2811 66.2844C87.209 66.2846 87.1509 66.277 87.1072 66.2691C87.4728 66.4556 85.9619 67.0325 85.8784 66.691C85.855 66.5533 86.9191 66.2156 86.9641 66.2233C86.984 66.2262 87.0032 66.2336 87.0199 66.2373C86.6676 65.9749 90.1602 64.595 89.1982 64.3774C90.0868 63.69 89.3616 65.1962 90.0051 64.6158ZM94.597 62.0852C94.5337 62.2246 94.4701 62.364 94.4063 62.5034C96.0466 61.5533 98.261 61.181 100.232 60.3424C100.735 60.1289 99.9078 59.7834 100.632 59.6664C101.207 59.5747 102.021 59.8728 101.787 60.1172C101.726 60.1794 100.522 60.2716 99.9893 60.5394C98.4516 61.3156 99.0604 61.6542 98.9743 61.7069C98.8773 61.7648 97.717 61.831 97.1766 62.0738C95.7969 62.6942 95.2956 63.2668 93.2188 63.6382C94.1825 62.8534 93.277 62.3736 94.597 62.0852ZM112.64 61.4432C112.449 61.7367 111.577 61.0378 111.191 60.937C111.384 60.6398 112.259 61.335 112.64 61.4432ZM44.3387 73.3469C43.7676 72.9611 43.6503 75.8731 44.1167 75.102C44.2201 74.9327 44.3372 73.7078 44.3387 73.3469ZM44.1474 86.3334C44.3111 86.7176 44.6926 85.1523 44.2538 85.1718C44.1126 85.1696 44.1259 86.2867 44.1474 86.3334ZM115.808 53.1318C115.862 53.0836 116.651 52.7998 116.693 52.8081C117.486 53.0684 114.829 54.0996 115.808 53.1318ZM45.4203 100.492C45.1933 100.092 45.1029 100.557 45.1172 100.906C45.1324 101.261 45.2318 101.368 45.4432 101.18C45.4539 101.173 45.4559 101.052 45.4502 100.886C45.4441 100.72 45.431 100.509 45.4203 100.492ZM41.8406 94.0568C42.866 95.174 44.4442 97.6955 44.8752 98.802C45.401 100.012 45.4683 100.387 45.4032 100.441C45.2561 100.475 45.0871 100.124 44.5077 98.8131C44.0591 97.621 42.2627 94.8037 41.8406 94.0568ZM122.686 67.4905C122.47 67.7284 122.364 67.6712 122.202 67.4687C122.047 67.271 121.832 66.9293 121.644 66.8114C122.024 66.2853 122.547 67.4502 122.686 67.4905ZM119.731 50.2364C119.966 49.6789 119.745 49.9357 119.592 50.4158C119.428 50.9002 119.391 51.368 119.531 51.272C119.658 51.2119 119.96 50.6874 120.155 50.4057C120.35 50.1099 120.377 50.1189 119.964 50.4823C119.939 50.506 119.92 50.5194 119.908 50.5234C119.634 50.3137 119.643 50.3639 119.699 50.2906C119.71 50.2762 119.721 50.2586 119.731 50.2364ZM122.407 67.7603C122.663 67.3748 122.221 67.2728 121.043 65.1344C121.014 65.4128 121.561 66.489 121.876 66.9626C122.214 67.4882 122.379 67.6646 122.407 67.7603ZM45.1945 69.8728C45.7149 70.382 45.0914 72.604 44.8753 72.2135C44.8282 72.1207 44.9084 69.6934 45.1945 69.8728ZM116.019 52.3958C115.599 51.9213 117.327 51.2502 117.475 51.316C118.226 51.5284 116.121 52.1947 116.019 52.3958ZM119 65.8326C118.493 66.1238 117.711 65.4661 117.097 65.1711C117.56 64.9271 118.549 65.597 119 65.8326ZM121.611 67.6735C121.618 67.6984 121.352 67.4831 121.324 67.4422C121.278 67.1391 121.548 67.1933 121.679 67.2996C121.814 67.4081 121.786 67.5484 121.611 67.6735ZM45.9891 12.2454C46.0049 12.286 45.9759 13.112 45.9576 13.1479C45.4916 13.9006 45.5808 11.3775 45.9891 12.2454Z" fill="var(--stroke-0, #FF8D9C)"/>
</svg>
