<svg width="56" height="46" viewBox="0 0 56 46" fill="none" xmlns="http://www.w3.org/2000/svg">
<path d="M3.50871 9C3.50871 4.02944 7.53814 0 12.5087 0H44.5087C49.4793 0 53.5087 4.02944 53.5087 9V36C53.5087 40.9706 49.4793 45 44.5087 45H12.5087C7.53814 45 3.50871 40.9706 3.50871 36V9Z" fill="#F3F4F6"/>
<path d="M9.14871 34.936V27.256H9.98071C10.9194 27.256 11.5914 26.744 11.9967 25.72C12.4234 24.696 12.7114 22.7227 12.8607 19.8L13.1487 13.784H27.2607V27.256H30.0447V34.936H25.0207V31H14.1727V34.936H9.14871ZM15.6127 27.256H21.9807V17.528H17.9487L17.7567 20.76C17.5647 23.96 16.85 26.1253 15.6127 27.256Z" fill="black"/>
<path d="M47.2805 20.088H42.3525C41.9471 18.2747 40.8485 17.368 39.0565 17.368C37.9898 17.368 37.0938 17.7733 36.3685 18.584C35.6645 19.3733 35.3125 20.6213 35.3125 22.328C35.3125 24.056 35.6751 25.3253 36.4005 26.136C37.1258 26.9253 38.0111 27.32 39.0565 27.32C40.9765 27.32 42.1498 26.4347 42.5765 24.664H47.5045C47.1205 26.2853 46.4271 27.6293 45.4245 28.696C44.4431 29.7413 43.3978 30.456 42.2885 30.84C41.1791 31.224 39.9951 31.416 38.7365 31.416C35.9418 31.416 33.7765 30.5947 32.2405 28.952C30.7045 27.3093 29.9365 25.0907 29.9365 22.296C29.9365 19.5867 30.7471 17.4107 32.3685 15.768C33.9898 14.104 36.1125 13.272 38.7365 13.272C40.0378 13.272 41.2325 13.4747 42.3205 13.88C43.4298 14.264 44.4538 14.9893 45.3925 16.056C46.3311 17.1013 46.9605 18.4453 47.2805 20.088Z" fill="black"/>
<path d="M3.80792 36.6711C3.41607 36.7207 3.08304 36.7781 2.80499 36.839C3.20216 36.9858 3.73055 37.145 4.40753 37.3019C5.67235 37.595 7.35719 37.8624 9.45831 38.0627C17.8687 38.8642 32.707 38.5617 53.3157 34.6964L53.6839 36.6613C32.9399 40.5519 17.9091 40.8773 9.26886 40.0539C7.10761 39.8479 5.33098 39.5687 3.95636 39.2502C2.61695 38.9397 1.55276 38.5686 0.902649 38.1252C0.600359 37.919 0.182568 37.5613 0.0715939 37.006C-0.0637177 36.3282 0.324086 35.8318 0.667297 35.5666C0.997856 35.3111 1.43057 35.138 1.87726 35.0099C2.34186 34.8767 2.905 34.7692 3.55695 34.6867L3.80792 36.6711ZM20.2298 9.29214C28.5766 9.41248 39.9115 9.80766 46.9905 10.1476C48.7898 10.234 50.366 10.4036 51.6546 10.6359C52.9215 10.8643 53.9851 11.1657 54.7093 11.5519C55.0621 11.7401 55.4436 12.004 55.6868 12.3869C55.9758 12.8419 56.0212 13.3983 55.7532 13.9084C55.5307 14.3316 55.1419 14.6276 54.7718 14.841C54.3806 15.0664 53.8889 15.2681 53.3138 15.4523L52.7034 13.548C53.0669 13.4316 53.3489 13.3187 53.5618 13.2169C53.0889 13.0084 52.3383 12.7908 51.3001 12.6037C50.1171 12.3904 48.6303 12.228 46.8948 12.1447C39.8336 11.8056 28.521 11.4121 20.2005 11.2921C16.0738 11.2327 13.2275 11.4067 10.7659 11.6144C8.31324 11.8214 6.16737 12.0699 3.53741 12.1457L3.50812 11.1466L3.4798 10.1466C6.03584 10.073 8.07672 9.83488 10.597 9.62222C13.1086 9.4103 16.0231 9.2315 20.2298 9.29214Z" fill="#C1EE2E"/>
</svg>
